<?xml version="1.0" standalone="no"?>
<!DOCTYPE svg PUBLIC "-//W3C//DTD SVG 1.1//EN"
"http://www.w3.org/Graphics/SVG/1.1/DTD/svg11.dtd">

 <svg width="900px" height="1800px" viewBox="0 0 900 1800" version="1.1" xmlns="http://www.w3.org/2000/svg">

  <path d=" M 321.88 712.63 L 321.88 712.63 L 322.81 711.29 L 323.97 710.80 L 324.73 710.77 L 325.81 711.02 L 326.59 711.48 L 327.87 712.55 L 328.52 713.56 L 330.09 716.79 L 330.77 718.50 L 331.13 720.25 L 331.10 721.56 L 330.78 722.08 L 329.43 721.81 L 327.76 721.00 L 325.86 719.83 L 323.75 718.31 L 322.52 716.81 L 322.01 715.36 L 321.75 713.47 z M 280.29 705.47 L 280.29 705.47 L 281.29 705.85 L 281.64 706.93 L 285.42 716.14 L 285.59 717.48 L 285.51 718.55 L 285.16 719.84 L 284.43 720.69 L 283.30 720.68 L 281.32 720.00 L 279.48 719.00 L 278.56 718.10 L 276.95 715.78 L 275.39 712.14 L 275.04 711.61 L 274.50 710.22 L 274.32 708.94 L 274.36 708.28 L 275.26 706.86 L 276.59 705.75 L 278.59 705.05 z M 316.93 669.81 L 316.93 669.81 L 317.71 670.24 L 319.02 671.55 L 319.89 673.10 L 320.08 673.66 L 320.18 675.18 L 319.31 677.80 L 319.04 679.18 L 318.80 681.50 L 318.90 681.82 L 319.57 682.47 L 320.21 682.66 L 320.78 682.42 L 322.00 682.30 L 322.85 681.92 L 324.39 681.67 L 325.90 681.65 L 327.24 681.97 L 327.62 682.18 L 327.06 683.37 L 327.08 685.10 L 327.42 685.95 L 328.55 687.39 L 329.03 687.82 L 330.04 688.32 L 332.17 689.92 L 333.59 691.98 L 334.02 693.35 L 334.05 694.82 L 333.71 696.16 L 332.96 697.50 L 331.16 699.15 L 329.60 699.81 L 329.11 700.16 L 327.91 700.63 L 327.36 701.00 L 325.99 702.42 L 325.60 702.98 L 325.28 704.45 L 325.28 705.00 L 325.53 705.83 L 323.69 706.05 L 322.43 705.80 L 318.27 704.09 L 317.62 704.19 L 316.75 704.91 L 316.65 705.23 L 316.69 705.98 L 316.59 706.43 L 316.73 709.75 L 316.98 711.01 L 316.79 712.71 L 315.32 714.69 L 314.62 715.31 L 313.75 715.85 L 312.56 716.09 L 311.60 716.08 L 310.59 715.76 L 309.09 714.98 L 306.44 712.84 L 304.79 711.18 L 303.27 709.20 L 301.62 706.46 L 300.68 704.41 L 300.53 702.55 L 300.73 701.37 L 301.26 700.35 L 303.88 697.95 L 304.47 697.56 L 306.27 699.07 L 307.55 699.90 L 310.41 701.21 L 311.71 701.42 L 312.34 701.22 L 312.56 700.96 L 312.62 700.30 L 312.47 700.00 L 311.25 699.25 L 308.91 697.17 L 307.25 695.94 L 306.59 695.06 L 306.25 693.94 L 306.15 692.91 L 306.27 691.48 L 306.66 690.28 L 307.44 689.19 L 309.01 688.19 L 312.45 686.28 L 313.69 685.87 L 315.33 685.53 L 315.57 685.29 L 315.70 684.64 L 315.34 684.08 L 314.96 683.91 L 311.54 684.14 L 309.17 684.79 L 307.37 685.53 L 305.79 686.59 L 305.34 686.69 L 303.01 683.77 L 302.42 682.76 L 302.26 681.87 L 302.28 680.82 L 302.78 679.24 L 303.21 678.42 L 304.53 676.64 L 307.41 673.78 L 309.40 672.30 L 312.94 670.38 L 314.75 669.77 L 315.74 669.71 z M 351.09 700.18 L 351.09 700.18 L 354.05 700.67 L 355.19 701.04 L 358.43 703.02 L 359.65 704.37 L 361.34 706.95 L 362.34 708.96 L 362.24 709.78 L 361.11 711.35 L 359.68 712.44 L 358.60 712.84 L 357.22 713.06 L 355.34 712.85 L 353.71 712.26 L 350.83 710.67 L 349.70 709.67 L 347.64 707.51 L 345.80 704.95 L 345.04 703.51 L 344.74 701.83 L 345.14 700.87 L 345.84 700.23 L 346.77 699.77 z M 279.39 663.37 L 279.39 663.37 L 279.97 663.76 L 280.57 664.71 L 281.10 666.90 L 281.41 669.64 L 280.90 670.84 L 280.90 671.59 L 280.49 672.33 L 280.42 672.81 L 280.99 674.44 L 282.14 675.41 L 285.55 676.67 L 285.78 676.97 L 286.49 677.43 L 285.90 678.36 L 285.64 680.41 L 285.83 681.17 L 287.16 683.33 L 288.62 684.46 L 290.18 685.30 L 291.88 687.01 L 292.98 689.44 L 293.14 690.88 L 292.92 692.37 L 292.32 693.79 L 291.38 695.01 L 289.29 696.46 L 287.02 697.06 L 286.29 697.06 L 284.99 697.34 L 283.93 697.43 L 283.42 697.60 L 280.96 699.32 L 280.75 699.81 L 280.27 701.83 L 280.29 702.21 L 278.78 702.40 L 275.61 701.98 L 274.24 702.22 L 272.87 703.32 L 272.69 703.61 L 272.14 706.72 L 271.60 707.86 L 270.44 709.28 L 268.96 710.82 L 267.65 711.45 L 267.05 711.37 L 265.62 710.71 L 264.25 709.52 L 262.51 707.67 L 261.05 705.79 L 259.59 703.40 L 258.41 700.86 L 257.27 697.70 L 257.09 696.48 L 257.65 693.42 L 259.52 692.89 L 263.33 690.05 L 264.85 687.87 L 265.77 685.45 L 266.08 682.85 L 265.76 680.18 L 263.89 676.14 L 262.19 674.45 L 262.83 671.98 L 263.27 671.14 L 264.41 669.84 L 266.85 667.87 L 269.95 665.76 L 272.88 664.43 L 275.30 663.54 L 277.17 663.16 L 278.71 663.13 z M 370.49 709.40 L 370.49 709.40 L 371.86 710.78 L 372.13 711.23 L 371.55 711.11 L 370.39 710.19 L 369.94 709.54 L 369.97 709.44 z M 232.02 649.48 L 232.02 649.48 L 231.32 649.71 L 230.16 650.34 L 226.40 653.07 L 225.59 653.82 L 225.27 654.34 L 225.12 654.97 L 225.30 655.60 L 225.92 656.16 L 226.61 656.17 L 228.13 655.64 L 230.33 654.34 L 232.39 652.94 L 233.76 652.31 L 235.49 651.92 L 236.95 651.73 L 238.55 651.87 L 240.11 651.83 L 241.78 652.15 L 242.81 652.61 L 245.11 654.84 L 246.51 655.29 L 248.55 655.29 L 251.12 654.71 L 253.49 653.83 L 256.18 652.49 L 257.77 651.95 L 259.80 651.78 L 262.14 652.74 L 263.31 653.87 L 263.48 654.43 L 263.35 655.27 L 262.41 657.01 L 260.25 658.10 L 249.09 664.76 L 246.81 666.49 L 245.98 667.48 L 245.50 669.30 L 245.67 670.37 L 247.00 672.53 L 251.28 675.91 L 252.65 677.97 L 253.25 680.73 L 253.13 682.14 L 252.64 683.63 L 251.78 684.98 L 250.48 686.17 L 248.18 687.27 L 245.85 687.52 L 243.78 687.09 L 242.59 687.04 L 240.62 686.62 L 239.69 686.76 L 237.97 687.30 L 237.50 687.56 L 236.70 688.65 L 236.17 689.88 L 236.11 690.50 L 236.38 693.51 L 238.91 706.26 L 239.50 708.37 L 238.95 710.05 L 238.42 710.93 L 237.77 711.22 L 235.81 711.00 L 234.33 710.31 L 233.12 709.10 L 232.19 707.44 L 230.45 701.94 L 229.03 699.36 L 228.03 698.16 L 226.55 697.09 L 226.24 696.98 L 223.09 696.77 L 222.10 696.35 L 221.48 695.93 L 218.28 692.62 L 217.12 690.45 L 216.61 688.75 L 216.19 685.87 L 215.54 682.84 L 214.94 681.75 L 214.66 681.48 L 214.67 681.10 L 215.24 679.47 L 215.24 679.15 L 219.76 678.59 L 223.78 676.43 L 225.67 674.48 L 227.08 672.11 L 227.90 669.52 L 228.08 666.74 L 226.93 662.14 L 224.48 658.67 L 224.00 658.31 L 224.30 658.01 L 224.87 656.56 L 224.61 655.74 L 223.65 654.99 L 221.43 654.28 L 220.32 653.40 L 222.96 652.13 L 228.79 649.95 L 232.75 648.79 z M 369.41 678.29 L 369.41 678.29 L 369.74 678.74 L 368.89 680.88 L 368.74 681.53 L 368.96 682.99 L 369.26 683.66 L 370.07 684.71 L 370.36 685.35 L 372.44 686.52 L 374.21 688.27 L 374.75 689.85 L 374.86 691.19 L 374.77 692.29 L 374.43 693.38 L 372.86 695.27 L 371.88 696.14 L 371.01 696.62 L 370.84 696.92 L 370.70 697.72 L 370.35 698.22 L 370.11 698.89 L 370.03 700.40 L 370.30 701.23 L 371.44 703.17 L 371.34 703.48 L 370.99 703.76 L 370.40 703.90 L 368.48 703.92 L 365.95 703.31 L 363.30 701.97 L 362.39 701.09 L 361.95 700.47 L 361.57 699.04 L 361.09 698.58 L 360.76 698.51 L 358.47 698.67 L 356.65 698.47 L 355.46 698.14 L 351.45 696.31 L 348.80 695.46 L 348.02 695.06 L 347.61 694.70 L 347.17 693.90 L 346.91 692.91 L 346.99 691.44 L 347.30 690.66 L 347.84 689.91 L 350.68 688.45 L 354.11 686.27 L 356.25 685.37 L 357.92 684.99 L 359.82 684.85 L 360.34 684.45 L 360.74 682.69 L 361.17 681.82 L 361.71 681.19 L 362.67 680.39 L 364.48 679.25 L 367.59 678.21 L 368.71 678.13 z M 396.19 692.56 L 396.19 692.56 L 397.37 693.05 L 400.63 694.98 L 403.02 696.78 L 404.78 697.93 L 406.06 699.24 L 406.09 699.74 L 405.55 700.76 L 405.09 701.18 L 403.90 701.79 L 402.72 702.17 L 401.38 702.36 L 399.18 702.28 L 397.30 701.79 L 395.27 700.84 L 393.73 699.79 L 390.25 696.75 L 389.34 695.44 L 389.29 695.17 L 389.53 694.59 L 389.82 694.21 L 390.80 693.48 L 392.37 692.91 L 395.02 692.52 z M 410.17 668.86 L 410.17 668.86 L 410.36 669.07 L 410.31 670.47 L 409.94 672.30 L 409.66 675.69 L 409.74 676.02 L 410.23 676.47 L 411.14 676.65 L 412.31 677.09 L 413.07 677.76 L 413.99 679.51 L 414.45 681.22 L 414.53 682.26 L 414.39 683.35 L 414.00 684.33 L 413.41 684.98 L 412.19 686.02 L 412.09 686.35 L 412.23 686.91 L 414.25 690.28 L 415.36 691.49 L 415.70 692.34 L 415.54 692.75 L 414.75 693.21 L 412.64 693.57 L 410.07 693.61 L 408.06 693.20 L 407.06 692.79 L 406.17 692.19 L 405.77 691.43 L 405.80 689.53 L 405.50 688.93 L 404.88 688.72 L 401.95 689.59 L 400.71 689.81 L 399.58 689.86 L 398.25 689.72 L 397.36 689.44 L 395.77 688.68 L 392.84 688.47 L 390.54 688.53 L 389.55 688.31 L 388.74 687.71 L 388.00 686.54 L 388.05 685.48 L 388.55 684.26 L 388.97 683.81 L 391.48 682.57 L 393.81 681.21 L 395.54 679.22 L 396.46 678.58 L 397.92 677.92 L 400.48 677.32 L 401.93 677.16 L 402.48 676.79 L 402.61 676.14 L 401.96 674.94 L 401.75 673.88 L 401.90 673.06 L 402.98 671.67 L 403.60 671.11 L 405.15 670.12 L 408.41 668.76 L 409.80 668.72 z M 190.77 629.19 L 190.77 629.19 L 201.25 627.83 L 201.48 628.49 L 201.33 629.63 L 201.06 630.32 L 200.63 630.97 L 200.50 631.93 L 200.77 632.51 L 201.05 632.70 L 203.75 632.90 L 206.16 633.74 L 206.63 633.75 L 208.72 635.08 L 210.86 636.23 L 214.77 637.45 L 219.18 637.67 L 221.86 637.19 L 223.30 636.75 L 225.60 636.28 L 227.69 636.38 L 228.83 636.90 L 229.82 637.82 L 230.17 638.55 L 230.15 639.36 L 229.82 640.12 L 228.62 641.38 L 222.56 643.31 L 210.03 648.40 L 208.84 649.28 L 207.80 651.56 L 207.85 652.57 L 209.10 655.21 L 209.81 656.00 L 211.25 656.77 L 211.94 657.50 L 213.10 658.17 L 214.66 659.97 L 215.60 662.28 L 215.69 664.79 L 215.23 666.65 L 214.50 667.99 L 213.26 669.34 L 211.83 670.29 L 209.27 671.06 L 206.89 670.92 L 204.77 670.10 L 203.92 669.40 L 202.42 668.44 L 200.54 667.72 L 199.18 667.70 L 198.14 667.50 L 197.02 667.72 L 196.72 667.88 L 195.23 669.48 L 194.75 671.15 L 194.74 684.63 L 195.25 690.92 L 194.63 692.27 L 193.94 693.06 L 193.20 693.38 L 192.13 693.23 L 191.59 693.02 L 190.25 691.93 L 189.73 691.02 L 189.29 689.92 L 188.76 685.77 L 188.23 683.54 L 187.63 681.95 L 186.43 679.63 L 183.72 676.25 L 181.26 674.31 L 180.14 673.92 L 179.75 674.04 L 179.30 672.61 L 178.27 671.33 L 177.10 669.04 L 176.41 668.45 L 175.75 668.38 L 175.35 668.61 L 174.30 669.84 L 173.59 670.35 L 172.41 670.61 L 169.85 660.77 L 168.80 654.71 L 169.24 654.53 L 171.36 654.76 L 172.69 654.77 L 174.32 655.84 L 178.16 657.46 L 182.63 657.66 L 187.20 656.09 L 189.46 654.41 L 191.31 652.25 L 192.60 649.77 L 193.32 647.09 L 193.12 642.32 L 191.33 638.23 L 188.40 635.24 L 186.20 633.69 L 186.12 633.22 L 185.16 631.08 L 185.12 630.43 z M 210.15 680.06 L 210.15 680.06 L 211.50 680.84 L 212.01 681.32 L 212.84 681.73 L 212.30 683.10 L 212.25 684.53 L 212.68 687.82 L 212.68 688.59 L 213.49 691.23 L 213.53 691.85 L 211.95 688.60 L 209.45 682.28 L 208.73 679.83 L 209.23 679.80 z M 355.89 670.98 L 355.89 670.98 L 356.85 671.24 L 358.24 671.99 L 359.58 673.25 L 359.94 673.90 L 359.85 674.67 L 358.19 678.68 L 357.31 680.14 L 355.51 681.98 L 353.55 683.40 L 349.33 684.73 L 346.01 685.60 L 345.49 685.59 L 344.59 685.17 L 343.52 684.11 L 343.38 683.45 L 343.37 682.65 L 343.68 681.11 L 344.56 679.30 L 346.42 676.43 L 348.03 674.49 L 348.63 673.93 L 351.30 672.05 L 352.35 671.49 L 353.59 671.05 L 354.82 670.91 z M 439.04 680.55 L 439.04 680.55 L 443.40 682.35 L 445.12 683.25 L 445.66 683.65 L 445.82 683.97 L 445.29 684.28 L 444.39 684.50 L 439.27 684.51 L 438.21 684.15 L 435.18 682.25 L 434.37 681.57 L 434.17 681.19 L 434.18 680.58 L 434.37 680.15 L 434.97 679.57 L 436.43 679.35 z M 179.05 675.66 L 179.05 675.66 L 182.10 679.48 L 182.37 680.15 L 182.57 681.09 L 182.55 682.56 L 182.42 683.07 L 181.84 684.20 L 181.62 684.36 L 181.43 684.31 L 179.92 682.80 L 178.65 680.88 L 177.88 679.11 L 177.69 677.42 L 177.73 676.46 L 178.04 675.52 L 178.45 675.17 L 179.03 675.04 z M 397.29 665.90 L 397.29 665.90 L 398.08 666.22 L 398.59 666.90 L 398.47 667.83 L 397.71 669.55 L 397.18 670.39 L 395.93 672.92 L 393.13 677.03 L 392.43 677.61 L 389.85 678.64 L 388.18 679.00 L 386.51 678.91 L 385.50 678.40 L 385.14 677.84 L 385.38 676.15 L 386.81 673.05 L 388.93 669.65 L 390.00 668.56 L 391.44 667.38 L 393.19 666.41 L 394.57 665.98 L 396.30 665.75 z M 335.63 667.14 L 335.63 667.14 L 335.85 667.69 L 335.67 669.02 L 334.96 670.59 L 334.12 672.00 L 331.77 675.26 L 330.79 676.19 L 329.37 676.91 L 328.13 677.22 L 327.31 677.17 L 326.62 676.92 L 325.70 676.14 L 325.13 674.22 L 325.75 672.41 L 326.78 670.66 L 327.78 669.81 L 330.05 668.63 L 332.10 667.84 L 334.87 667.04 z M 430.18 675.31 L 430.18 675.31 L 429.18 674.70 L 428.76 674.16 L 428.54 673.56 L 428.72 672.11 L 429.05 671.58 L 429.98 670.89 L 434.19 668.82 L 434.87 667.98 L 435.25 666.45 L 435.89 665.69 L 436.75 665.07 L 437.53 664.68 L 440.41 663.62 L 441.99 663.21 L 443.31 663.03 L 444.38 663.07 L 444.67 662.90 L 445.02 662.26 L 445.03 661.92 L 444.68 661.36 L 442.98 659.97 L 442.89 659.34 L 443.33 658.07 L 444.69 656.41 L 446.86 654.86 L 448.70 654.07 L 449.91 653.97 L 449.98 654.62 L 448.17 659.16 L 447.16 660.64 L 447.06 661.30 L 447.44 661.84 L 447.76 661.96 L 449.53 661.86 L 450.77 662.05 L 451.23 662.23 L 452.15 663.84 L 452.70 665.12 L 453.21 666.87 L 453.28 667.59 L 452.47 668.72 L 450.72 670.06 L 450.45 670.66 L 450.68 671.28 L 451.34 671.64 L 452.68 671.78 L 453.87 672.18 L 457.50 674.16 L 457.75 674.49 L 457.38 674.85 L 456.35 675.44 L 454.52 675.86 L 452.22 676.09 L 449.84 675.62 L 448.80 674.87 L 448.58 674.26 L 449.28 672.32 L 449.25 671.98 L 448.91 671.50 L 448.49 671.25 L 447.83 671.23 L 447.53 671.39 L 446.30 672.57 L 444.44 673.58 L 442.19 674.51 L 440.26 675.05 L 438.80 675.01 L 438.12 674.71 L 437.18 674.08 L 436.35 673.91 L 431.90 675.19 L 430.86 675.36 z M 296.41 662.29 L 296.41 662.29 L 298.26 662.74 L 298.80 663.10 L 299.01 663.99 L 298.85 665.22 L 298.11 666.82 L 297.65 667.43 L 289.05 674.71 L 287.97 674.60 L 286.91 674.29 L 286.38 674.32 L 286.13 674.10 L 285.89 673.63 L 285.11 672.91 L 284.23 671.02 L 284.05 669.60 L 284.63 668.25 L 285.69 667.20 L 286.73 666.50 L 288.39 665.05 L 290.11 663.84 L 292.18 662.68 L 294.35 662.21 z M 368.98 671.31 L 368.98 671.31 L 367.79 672.85 L 367.41 672.39 L 367.59 672.06 L 368.70 670.86 L 369.25 670.65 z M 154.44 629.96 L 154.44 629.96 L 156.97 628.61 L 159.20 626.68 L 160.98 624.29 L 162.13 621.79 L 162.76 616.97 L 161.66 612.43 L 159.16 608.92 L 153.69 603.69 L 153.05 602.66 L 152.97 601.96 L 153.34 601.71 L 156.43 601.51 L 171.58 601.68 L 172.00 602.14 L 172.46 603.78 L 172.47 605.01 L 172.29 606.44 L 172.62 607.56 L 172.86 607.80 L 173.55 608.09 L 173.89 608.09 L 175.13 607.58 L 175.51 607.28 L 176.53 605.71 L 177.42 605.07 L 178.50 604.57 L 180.79 604.23 L 184.02 604.14 L 186.65 604.52 L 189.93 605.38 L 191.92 606.64 L 193.33 607.77 L 193.91 608.38 L 193.98 608.72 L 193.82 608.96 L 192.84 609.56 L 188.90 611.15 L 185.92 612.00 L 184.85 612.44 L 184.42 612.95 L 184.38 613.28 L 184.67 613.87 L 185.42 614.51 L 185.97 614.71 L 190.00 615.48 L 192.57 615.58 L 196.67 615.47 L 198.49 615.77 L 199.50 616.45 L 199.89 617.33 L 199.84 618.23 L 199.15 619.13 L 198.19 619.99 L 192.14 620.69 L 187.69 621.43 L 175.56 624.45 L 173.97 625.28 L 172.48 627.07 L 172.00 627.90 L 171.93 628.23 L 172.11 629.04 L 172.36 629.53 L 173.35 630.18 L 174.36 631.72 L 175.47 632.56 L 175.97 632.73 L 177.87 634.10 L 178.24 634.24 L 180.10 635.76 L 181.33 637.81 L 181.85 640.29 L 181.52 642.71 L 180.78 644.51 L 179.69 645.94 L 178.26 647.10 L 176.58 647.89 L 173.82 648.29 L 171.47 647.82 L 169.52 646.69 L 167.92 644.85 L 166.08 642.35 L 165.37 641.56 L 164.21 640.87 L 162.88 639.73 L 161.77 639.41 L 161.43 639.44 L 159.05 641.18 L 158.15 643.12 L 155.97 655.52 L 155.56 659.60 L 155.28 666.06 L 154.44 667.13 L 153.62 667.80 L 152.75 667.90 L 151.71 667.43 L 151.10 666.63 L 150.59 664.34 L 150.39 659.54 L 150.25 658.35 L 149.55 655.32 L 148.78 653.51 L 148.10 652.80 L 147.46 652.64 L 146.89 652.99 L 145.79 657.42 L 145.08 659.71 L 143.95 662.38 L 143.60 662.66 L 143.35 662.56 L 142.08 661.43 L 140.72 659.63 L 140.12 658.63 L 139.02 655.29 L 138.45 652.27 L 138.38 648.44 L 138.67 647.00 L 139.47 645.42 L 141.20 643.99 L 141.70 642.68 L 141.63 642.02 L 141.14 641.34 L 140.83 641.20 L 137.18 641.49 L 136.30 641.33 L 135.35 640.91 L 135.15 640.69 L 133.97 626.25 L 133.91 622.57 L 134.16 622.14 L 134.74 622.14 L 135.92 622.77 L 141.51 627.85 L 145.14 630.07 L 149.47 630.89 z M 434.78 655.29 L 434.78 655.29 L 434.47 656.42 L 433.52 658.75 L 431.92 662.11 L 431.16 664.08 L 430.38 665.14 L 429.57 665.50 L 428.36 665.44 L 427.81 664.95 L 427.72 663.95 L 428.75 660.82 L 429.37 659.44 L 433.31 655.63 L 434.63 654.96 z M 487.98 641.12 L 487.98 641.12 L 489.06 642.61 L 490.10 644.48 L 490.46 645.40 L 490.31 645.73 L 488.71 647.47 L 488.08 647.93 L 487.12 648.25 L 486.18 648.32 L 485.33 649.02 L 484.72 650.39 L 483.63 651.55 L 482.67 652.25 L 479.27 654.09 L 477.82 654.51 L 477.36 654.43 L 476.73 653.47 L 476.16 653.14 L 475.45 653.33 L 474.10 654.31 L 472.49 655.11 L 470.80 655.62 L 469.45 655.80 L 468.55 655.75 L 467.78 655.22 L 467.78 654.41 L 468.27 653.28 L 469.01 652.42 L 471.09 650.68 L 473.72 649.54 L 473.94 649.29 L 474.03 648.63 L 473.43 647.33 L 474.14 646.43 L 475.12 645.76 L 478.43 644.00 L 479.51 643.60 L 480.73 643.35 L 482.23 643.56 L 482.75 643.50 L 483.50 643.11 L 483.92 642.44 L 484.40 642.00 L 485.31 641.58 L 486.35 641.29 z M 146.09 570.80 L 146.09 570.80 L 146.45 571.01 L 147.10 571.96 L 147.56 573.68 L 147.77 574.99 L 148.28 576.18 L 148.56 576.36 L 149.78 576.47 L 150.75 575.80 L 152.30 575.07 L 153.62 574.68 L 155.11 574.58 L 158.44 575.05 L 161.83 575.70 L 164.93 576.82 L 167.08 577.88 L 168.32 578.76 L 169.78 580.04 L 171.34 581.91 L 171.77 582.77 L 171.84 583.26 L 171.75 583.53 L 171.40 583.82 L 170.39 584.15 L 161.63 585.47 L 160.63 585.83 L 160.20 586.33 L 160.14 587.43 L 160.58 588.04 L 161.57 588.66 L 163.28 589.19 L 169.85 590.64 L 172.00 591.57 L 172.42 592.09 L 172.51 593.23 L 171.72 594.09 L 159.59 593.72 L 156.71 593.79 L 148.93 594.57 L 144.08 595.40 L 139.03 597.24 L 134.21 600.30 L 130.31 604.12 L 127.46 608.41 L 125.55 612.75 L 122.84 620.29 L 122.08 623.06 L 119.52 634.90 L 118.83 635.38 L 118.01 635.36 L 117.30 634.96 L 116.99 634.44 L 116.64 632.75 L 116.62 631.05 L 116.80 627.75 L 116.78 624.90 L 116.67 623.56 L 116.32 622.59 L 116.05 622.21 L 115.53 621.92 L 114.72 621.83 L 114.40 621.94 L 113.61 622.96 L 110.39 630.76 L 109.78 631.93 L 109.38 632.33 L 108.99 632.47 L 108.39 632.25 L 107.13 630.81 L 105.69 628.23 L 105.24 627.11 L 104.52 624.18 L 104.17 620.30 L 104.48 614.95 L 104.84 613.21 L 105.50 611.76 L 106.55 610.46 L 107.68 609.31 L 107.83 609.01 L 107.78 608.08 L 107.63 607.77 L 106.90 607.19 L 104.25 605.67 L 103.66 605.18 L 103.20 604.39 L 104.85 585.34 L 105.15 584.74 L 105.33 584.73 L 106.72 586.09 L 107.84 587.98 L 113.20 594.72 L 116.47 597.49 L 120.86 598.99 L 125.92 598.75 L 128.71 597.77 L 131.36 596.11 L 133.48 594.04 L 135.10 591.62 L 136.56 586.83 L 136.23 582.23 L 134.28 578.26 L 129.13 571.50 L 127.82 570.21 L 127.50 569.70 L 127.04 569.32 L 126.76 568.90 L 126.64 568.35 L 126.77 568.03 L 127.34 567.87 z M 215.21 630.04 L 215.21 630.04 L 217.14 630.81 L 217.53 631.27 L 217.33 631.71 L 216.71 632.37 L 215.31 633.11 L 214.17 633.45 L 212.71 633.40 L 210.85 632.83 L 210.08 632.49 L 209.56 632.44 L 208.08 631.92 L 207.99 631.25 L 208.19 630.95 L 209.90 629.90 L 212.90 629.66 z M 522.30 614.45 L 522.30 614.45 L 523.24 615.32 L 524.05 616.40 L 524.67 617.64 L 522.70 620.06 L 522.09 620.58 L 520.89 621.12 L 520.37 621.57 L 519.42 623.42 L 518.08 624.97 L 516.61 626.17 L 515.01 627.22 L 513.44 627.89 L 512.90 627.38 L 512.59 627.25 L 511.49 627.23 L 511.19 627.38 L 509.46 628.95 L 508.58 629.41 L 505.71 630.21 L 504.54 630.32 L 505.17 628.87 L 506.78 626.43 L 507.47 625.77 L 509.47 624.47 L 509.75 623.90 L 509.71 623.24 L 509.29 622.57 L 509.87 621.65 L 510.74 620.79 L 512.48 619.40 L 513.68 618.62 L 515.17 617.96 L 517.12 617.57 L 517.77 617.25 L 518.46 616.41 L 519.10 615.87 L 521.14 614.87 z M 146.22 604.83 L 146.22 604.83 L 146.68 605.05 L 147.07 605.43 L 149.28 606.55 L 150.90 608.40 L 151.78 610.64 L 151.85 613.22 L 151.14 615.46 L 150.08 617.24 L 148.77 618.50 L 147.10 619.52 L 145.01 620.15 L 142.24 620.13 L 139.96 619.29 L 138.18 617.86 L 136.94 615.87 L 136.56 613.76 L 136.12 612.85 L 136.03 612.10 L 136.19 609.86 L 136.74 608.18 L 137.91 606.48 L 139.66 605.10 L 141.65 604.35 L 143.41 604.23 z M 554.80 583.29 L 554.80 583.29 L 552.13 587.03 L 551.15 587.80 L 550.73 588.29 L 549.89 590.23 L 548.69 591.98 L 546.79 593.79 L 545.90 594.39 L 545.26 594.63 L 544.47 594.22 L 543.83 594.41 L 541.31 597.12 L 539.67 598.05 L 537.85 598.76 L 538.60 596.68 L 539.14 595.65 L 539.72 594.85 L 541.76 593.03 L 542.09 592.46 L 542.11 591.80 L 541.70 591.20 L 542.18 590.18 L 543.22 588.78 L 545.04 587.05 L 545.95 586.45 L 547.91 585.48 L 549.06 584.08 L 552.73 581.28 z M 106.26 529.62 L 106.26 529.62 L 122.13 534.64 L 125.23 535.77 L 126.39 536.66 L 127.04 537.70 L 127.39 540.10 L 127.82 541.01 L 128.20 541.47 L 128.49 541.64 L 129.38 541.80 L 131.97 541.39 L 133.70 541.40 L 135.18 541.67 L 139.98 543.27 L 143.36 544.60 L 145.95 545.95 L 148.82 548.03 L 149.97 549.03 L 150.98 550.20 L 151.74 551.58 L 151.87 552.42 L 151.77 553.04 L 151.41 553.66 L 150.72 554.22 L 149.43 554.61 L 146.84 554.66 L 142.27 554.28 L 140.08 554.57 L 139.46 554.91 L 138.68 555.82 L 138.63 557.04 L 139.25 558.29 L 139.48 558.53 L 141.33 559.66 L 144.58 561.08 L 146.31 562.24 L 147.17 563.12 L 147.26 563.80 L 131.87 561.04 L 129.37 560.82 L 125.61 560.73 L 120.19 561.09 L 114.84 562.19 L 109.90 564.31 L 105.30 567.53 L 101.71 571.38 L 98.56 575.75 L 96.09 579.99 L 89.71 595.73 L 89.14 594.98 L 88.80 593.60 L 89.38 587.74 L 89.37 586.34 L 88.52 584.75 L 87.41 584.18 L 86.26 584.41 L 85.47 584.94 L 84.19 586.64 L 81.21 592.13 L 79.94 593.41 L 79.26 593.79 L 78.13 593.78 L 77.03 593.01 L 76.14 591.48 L 75.86 590.65 L 75.35 585.35 L 75.69 581.73 L 76.79 576.05 L 77.45 573.59 L 78.02 572.17 L 78.87 570.88 L 80.76 568.85 L 80.91 568.55 L 81.06 567.47 L 80.99 567.14 L 80.37 566.31 L 78.57 564.93 L 78.01 564.05 L 77.70 561.84 L 78.25 559.14 L 82.46 542.82 L 83.07 541.32 L 84.08 540.09 L 84.25 541.48 L 84.13 542.56 L 84.45 544.12 L 84.61 546.29 L 85.81 549.41 L 90.08 556.92 L 93.06 560.33 L 97.09 562.42 L 102.40 562.95 L 105.29 562.38 L 108.10 561.20 L 110.73 559.37 L 112.79 557.18 L 115.13 552.36 L 115.48 547.72 L 114.19 543.57 L 110.07 535.96 L 108.09 533.29 L 106.38 532.03 L 105.07 530.83 L 104.21 530.44 L 103.10 529.53 L 104.65 529.33 z M 822.14 570.92 L 822.14 570.92 L 823.66 571.44 L 824.39 572.11 L 824.76 573.07 L 825.74 574.86 L 825.83 575.25 L 826.12 575.67 L 828.36 576.89 L 829.66 577.88 L 830.39 578.67 L 830.57 579.24 L 830.45 582.29 L 830.15 583.62 L 829.71 584.44 L 828.41 586.30 L 826.91 587.46 L 826.18 587.82 L 823.22 588.79 L 822.32 588.92 L 821.39 588.17 L 820.77 587.27 L 818.67 585.64 L 818.24 583.97 L 818.23 582.20 L 818.49 580.35 L 819.16 577.29 L 819.10 575.37 L 819.40 573.33 L 820.26 571.54 L 821.02 570.89 z M 797.03 571.03 L 797.03 571.03 L 797.53 571.59 L 798.32 573.24 L 798.73 574.99 L 798.68 577.47 L 799.51 581.35 L 799.52 583.47 L 799.07 585.60 L 798.78 586.05 L 797.11 587.31 L 795.78 588.82 L 795.13 588.86 L 794.06 588.69 L 791.80 587.90 L 790.54 587.21 L 789.49 586.43 L 788.53 584.96 L 788.02 584.38 L 787.43 583.02 L 787.27 581.44 L 787.26 579.08 L 787.72 578.30 L 789.79 576.53 L 791.80 575.11 L 793.04 572.89 L 793.36 572.12 L 794.19 571.40 L 795.79 570.87 z M 119.68 572.23 L 119.68 572.23 L 122.41 572.73 L 124.76 574.41 L 126.09 576.51 L 126.59 578.88 L 126.21 581.50 L 125.12 583.62 L 124.67 584.27 L 123.75 585.23 L 122.12 586.38 L 120.26 587.14 L 117.99 587.45 L 115.18 587.01 L 113.01 585.82 L 111.46 584.09 L 110.55 581.87 L 110.52 579.03 L 111.51 576.81 L 111.81 575.61 L 114.53 573.08 L 115.16 572.73 L 118.83 571.90 z M 580.85 543.46 L 580.85 543.46 L 576.73 549.71 L 575.60 552.12 L 574.71 553.55 L 573.29 555.09 L 572.91 555.32 L 571.85 555.55 L 571.21 556.26 L 570.07 557.90 L 568.96 559.18 L 566.67 561.16 L 567.67 558.66 L 568.87 556.65 L 570.30 554.88 L 570.47 554.24 L 570.27 553.60 L 570.36 553.05 L 570.88 551.88 L 572.23 550.16 L 574.66 547.82 L 576.14 545.77 L 579.12 542.20 z M 61.23 553.18 L 61.23 553.18 L 61.56 554.43 L 61.50 555.86 L 60.52 557.68 L 59.29 558.83 L 58.23 559.42 L 57.77 559.55 L 57.61 559.35 L 57.44 558.50 L 57.64 556.74 L 58.58 554.70 L 59.86 553.32 L 60.44 553.09 z M 816.61 547.44 L 816.61 547.44 L 817.71 547.79 L 818.51 548.21 L 820.36 549.91 L 821.46 551.49 L 822.12 553.31 L 822.31 554.89 L 822.01 556.86 L 821.29 557.90 L 819.99 558.51 L 818.41 558.20 L 815.68 556.07 L 813.87 553.28 L 813.04 551.75 L 812.46 550.17 L 812.36 548.89 L 813.11 547.54 L 813.80 547.24 z M 804.34 547.32 L 804.34 547.32 L 805.22 548.23 L 805.48 549.05 L 805.50 549.52 L 805.24 550.60 L 804.27 552.73 L 802.57 555.49 L 801.79 556.41 L 800.20 557.81 L 799.00 558.36 L 797.34 558.39 L 796.53 557.83 L 795.83 556.97 L 795.46 555.27 L 795.58 553.53 L 796.34 551.67 L 797.51 549.79 L 798.81 548.49 L 800.64 547.57 L 803.52 547.19 z M 103.13 536.17 L 103.13 536.17 L 105.24 538.25 L 106.22 540.57 L 106.32 543.05 L 105.50 545.62 L 104.10 547.51 L 103.44 548.19 L 102.38 549.00 L 100.54 549.89 L 98.53 550.37 L 96.12 550.34 L 94.01 549.75 L 93.31 549.44 L 91.30 547.87 L 90.02 545.88 L 89.47 543.47 L 89.94 540.59 L 91.96 537.51 L 95.51 535.37 L 99.60 534.92 z M 90.16 487.68 L 90.16 487.68 L 95.27 489.41 L 104.56 493.99 L 108.18 495.97 L 112.42 500.46 L 112.73 501.21 L 112.76 502.41 L 113.04 503.20 L 113.66 503.96 L 114.83 504.49 L 118.60 504.88 L 120.03 505.45 L 128.13 510.08 L 130.35 511.52 L 134.99 515.84 L 135.92 517.31 L 136.28 518.38 L 136.23 518.91 L 135.83 519.57 L 134.95 520.14 L 134.31 520.34 L 132.85 520.47 L 126.66 519.77 L 125.21 519.89 L 123.50 520.72 L 123.26 520.96 L 122.49 522.39 L 122.61 524.30 L 123.01 525.40 L 123.18 526.25 L 124.03 527.47 L 124.36 528.25 L 110.98 523.70 L 110.15 523.52 L 101.97 522.77 L 98.54 522.92 L 96.30 523.32 L 91.48 524.75 L 86.78 526.78 L 84.79 527.92 L 82.02 530.04 L 76.21 535.92 L 68.45 548.58 L 68.12 547.52 L 68.05 546.37 L 67.20 544.41 L 66.31 543.10 L 66.03 542.87 L 64.55 542.32 L 63.03 542.51 L 62.36 542.77 L 60.76 543.99 L 56.97 548.08 L 55.94 548.80 L 54.42 549.32 L 53.16 548.94 L 52.75 548.43 L 52.38 547.17 L 52.90 541.19 L 53.35 538.96 L 54.24 536.24 L 55.98 531.62 L 56.89 528.86 L 57.42 527.78 L 58.16 526.71 L 61.06 523.88 L 61.22 523.58 L 61.31 522.38 L 60.83 521.40 L 60.13 520.55 L 59.83 519.75 L 59.75 518.99 L 60.23 513.10 L 61.55 509.68 L 65.75 500.15 L 68.59 495.51 L 71.25 492.75 L 73.77 491.46 L 73.43 492.26 L 71.33 495.21 L 70.99 496.60 L 69.39 499.56 L 69.02 503.52 L 69.70 506.65 L 72.83 515.07 L 75.18 518.87 L 79.17 521.79 L 84.24 523.10 L 87.36 523.00 L 90.40 522.24 L 93.30 520.85 L 95.81 518.92 L 98.90 514.62 L 100.06 509.97 L 99.43 505.41 L 96.43 496.93 L 94.93 494.10 L 92.20 491.35 L 88.98 490.05 L 87.99 489.29 L 84.32 488.22 L 83.67 487.86 L 86.32 487.27 z M 778.33 408.92 L 778.33 408.92 L 780.55 410.98 L 784.59 414.43 L 793.22 420.36 L 800.69 422.60 L 805.14 423.45 L 808.85 423.70 L 812.55 423.47 L 817.11 422.60 L 824.49 420.41 L 833.28 414.36 L 835.02 412.87 L 835.66 413.41 L 836.30 413.55 L 836.62 413.43 L 849.96 401.53 L 850.16 401.17 L 850.42 401.08 L 853.11 398.70 L 853.28 398.41 L 853.25 397.75 L 852.42 396.26 L 867.93 381.05 L 868.65 381.24 L 868.53 382.41 L 868.90 383.52 L 869.13 384.86 L 869.57 386.15 L 869.69 386.88 L 869.63 387.42 L 868.22 391.08 L 866.22 394.26 L 865.39 395.81 L 864.21 398.69 L 864.05 399.71 L 864.04 400.81 L 864.49 401.87 L 865.00 402.42 L 868.55 405.11 L 869.79 406.29 L 870.40 407.11 L 871.18 408.59 L 871.63 409.91 L 872.58 414.46 L 872.85 418.08 L 872.75 420.18 L 872.24 423.61 L 871.70 425.75 L 869.21 432.49 L 868.64 434.45 L 867.51 440.17 L 866.65 447.43 L 866.21 450.15 L 865.19 454.56 L 864.24 456.69 L 862.72 461.50 L 861.74 464.08 L 860.81 465.61 L 859.91 466.84 L 857.41 469.35 L 856.77 470.20 L 855.95 471.61 L 855.46 473.06 L 855.12 474.55 L 853.95 483.23 L 852.82 487.80 L 851.88 490.82 L 850.45 494.38 L 849.00 497.22 L 847.53 499.60 L 846.14 501.50 L 844.66 503.26 L 842.09 505.53 L 840.87 506.80 L 839.96 508.62 L 838.43 512.29 L 836.55 515.57 L 834.38 518.21 L 833.39 518.87 L 831.92 520.39 L 828.86 524.24 L 827.37 526.94 L 826.80 528.84 L 826.59 530.42 L 826.65 532.53 L 826.21 534.88 L 825.80 536.18 L 824.75 537.83 L 823.95 538.70 L 823.23 539.28 L 821.57 540.20 L 819.70 540.72 L 818.75 540.82 L 816.53 540.54 L 813.87 539.94 L 812.90 539.25 L 811.81 538.26 L 810.92 537.23 L 810.21 536.64 L 809.23 536.19 L 808.78 536.17 L 807.87 536.48 L 807.13 537.01 L 804.71 539.37 L 803.60 540.03 L 801.16 540.54 L 798.98 540.83 L 797.81 540.75 L 796.60 540.37 L 794.44 539.20 L 793.30 538.09 L 791.94 536.09 L 791.58 534.83 L 791.12 532.22 L 791.26 530.75 L 790.91 528.27 L 790.17 526.23 L 789.58 525.18 L 785.90 520.46 L 784.44 518.90 L 783.39 518.20 L 782.66 517.42 L 780.86 515.02 L 779.89 513.33 L 778.56 510.47 L 777.95 508.85 L 777.03 506.93 L 775.89 505.68 L 773.88 503.97 L 771.96 501.90 L 769.20 497.99 L 767.65 495.01 L 766.62 492.65 L 765.66 490.02 L 764.42 485.80 L 763.74 482.34 L 762.87 475.41 L 762.39 473.12 L 761.50 470.97 L 760.45 469.44 L 758.40 467.38 L 757.20 465.96 L 756.12 464.21 L 755.15 461.72 L 753.49 456.50 L 752.52 454.30 L 751.57 450.06 L 751.03 446.49 L 750.35 440.60 L 749.16 434.54 L 748.57 432.50 L 746.19 426.02 L 745.68 424.18 L 745.04 420.48 L 744.92 418.10 L 745.20 414.24 L 745.78 411.32 L 746.31 409.30 L 746.75 408.18 L 747.46 406.94 L 748.02 406.23 L 751.50 402.96 L 752.28 402.08 L 752.81 401.08 L 752.93 400.63 L 752.92 398.95 L 752.40 396.68 L 751.56 394.67 L 749.30 390.57 L 748.19 387.67 L 748.07 387.05 L 748.16 386.26 L 748.56 384.80 L 748.75 383.48 L 749.09 382.43 L 749.07 381.82 L 748.82 381.17 L 749.79 380.99 z M 135.42 526.55 L 135.42 526.55 L 137.14 527.10 L 138.97 528.46 L 139.52 529.76 L 139.12 529.92 L 137.20 530.24 L 135.25 529.75 L 134.50 529.37 L 133.44 528.54 L 132.87 527.55 L 132.79 527.01 L 133.32 526.56 L 134.12 526.35 z M 600.74 498.62 L 600.74 498.62 L 600.78 498.96 L 596.39 508.16 L 595.74 509.30 L 593.94 511.80 L 591.88 515.32 L 590.77 516.86 L 591.22 515.54 L 593.44 510.80 L 594.08 508.81 L 595.44 506.15 L 599.97 498.64 L 600.49 498.40 z M 82.34 443.43 L 82.34 443.43 L 84.37 443.99 L 90.31 447.09 L 94.37 449.95 L 97.38 452.39 L 99.33 454.78 L 102.28 459.42 L 105.40 463.79 L 107.50 465.09 L 110.43 466.46 L 114.91 470.39 L 119.58 474.25 L 121.43 476.10 L 123.26 478.20 L 124.96 480.64 L 125.38 481.66 L 125.46 482.58 L 125.25 483.11 L 124.72 483.51 L 123.71 483.76 L 121.93 483.74 L 117.12 482.81 L 115.73 482.96 L 114.73 483.68 L 114.31 484.25 L 114.24 484.58 L 114.86 486.39 L 115.13 486.60 L 116.82 487.20 L 118.96 487.38 L 122.27 488.42 L 123.50 488.98 L 125.68 490.27 L 128.46 492.75 L 129.94 494.51 L 130.51 495.71 L 130.93 497.33 L 130.28 497.54 L 128.10 497.26 L 125.18 496.54 L 122.28 495.59 L 119.88 494.60 L 118.62 493.85 L 117.38 492.92 L 116.55 491.75 L 115.18 490.30 L 113.54 489.50 L 112.88 489.57 L 112.03 490.53 L 100.49 484.51 L 96.85 483.08 L 90.53 481.36 L 89.49 481.28 L 83.73 481.38 L 79.18 481.99 L 74.75 483.14 L 69.46 485.16 L 68.60 485.59 L 63.23 489.67 L 60.41 492.35 L 52.04 502.17 L 51.05 501.70 L 50.72 501.66 L 50.03 502.01 L 49.02 503.16 L 48.35 504.97 L 48.13 505.91 L 47.43 507.45 L 46.52 508.67 L 45.28 509.92 L 40.71 513.79 L 38.72 514.99 L 37.58 515.52 L 37.06 515.60 L 36.97 515.48 L 36.84 512.96 L 37.87 509.79 L 38.88 507.77 L 40.49 505.36 L 41.92 503.91 L 44.94 501.51 L 46.35 500.87 L 47.72 499.62 L 47.87 499.14 L 47.73 498.21 L 47.79 497.78 L 47.48 497.14 L 47.20 496.95 L 45.96 496.61 L 44.39 496.95 L 42.64 497.93 L 40.32 499.60 L 39.04 500.19 L 37.59 500.43 L 36.80 500.05 L 36.36 499.28 L 36.28 498.24 L 37.59 493.29 L 38.53 490.87 L 41.83 484.62 L 43.38 481.22 L 44.49 479.34 L 45.88 477.71 L 47.17 476.62 L 47.99 475.47 L 48.40 474.48 L 48.63 473.53 L 48.73 472.46 L 49.46 469.45 L 50.18 465.37 L 51.30 461.50 L 52.19 459.68 L 55.88 453.78 L 60.25 448.68 L 61.80 447.48 L 67.52 444.40 L 71.59 443.21 L 76.01 442.74 z M 86.15 494.32 L 86.15 494.32 L 89.47 496.18 L 91.26 498.62 L 91.87 501.13 L 91.56 503.65 L 90.29 506.14 L 88.64 507.76 L 87.79 508.39 L 86.60 509.02 L 84.60 509.64 L 82.53 509.81 L 80.02 509.40 L 78.01 508.48 L 77.27 508.01 L 75.47 506.09 L 74.51 503.85 L 74.36 501.30 L 75.33 498.45 L 77.94 495.65 L 81.90 494.07 z M 72.24 444.76 L 72.24 444.76 L 68.19 446.22 L 65.16 448.19 L 61.12 453.53 L 60.12 457.58 L 60.31 460.91 L 62.10 469.76 L 63.93 474.15 L 67.33 477.61 L 72.37 479.83 L 75.54 480.22 L 78.82 479.94 L 82.08 478.92 L 84.73 477.47 L 88.54 473.59 L 90.47 469.06 L 90.54 464.30 L 88.85 455.27 L 87.69 451.97 L 85.37 448.82 L 79.52 445.35 L 76.33 444.72 z M 77.05 396.11 L 77.05 396.11 L 84.68 398.29 L 85.44 398.64 L 91.69 403.29 L 96.17 408.48 L 98.76 413.46 L 99.67 415.56 L 100.95 419.15 L 101.88 420.25 L 103.83 421.97 L 104.66 423.02 L 105.08 423.77 L 105.96 424.86 L 107.38 426.04 L 109.32 428.11 L 112.37 432.02 L 115.77 435.98 L 118.05 439.17 L 119.38 441.69 L 119.95 443.14 L 120.13 444.09 L 119.87 444.65 L 119.27 445.08 L 117.95 445.17 L 116.76 444.93 L 113.93 444.02 L 112.49 443.90 L 111.89 444.19 L 111.61 444.91 L 111.77 446.04 L 112.72 447.04 L 117.82 450.04 L 119.35 451.23 L 120.36 452.25 L 122.93 455.37 L 124.66 458.09 L 125.67 460.80 L 125.73 462.11 L 125.57 463.05 L 124.82 463.14 L 122.09 462.05 L 115.50 458.54 L 110.71 454.50 L 105.52 450.32 L 96.03 443.25 L 90.26 439.82 L 86.95 438.34 L 83.14 437.43 L 77.93 436.70 L 73.81 436.59 L 69.67 437.00 L 64.62 438.09 L 60.97 439.22 L 57.64 440.99 L 52.17 444.79 L 43.15 452.54 L 37.72 457.58 L 33.59 461.58 L 27.29 465.49 L 24.84 466.64 L 24.08 466.60 L 23.74 464.66 L 24.44 462.06 L 25.84 459.19 L 28.39 455.54 L 30.29 453.56 L 35.11 450.22 L 36.23 449.20 L 36.72 448.60 L 36.85 447.95 L 36.60 447.09 L 36.10 446.66 L 35.58 446.60 L 34.54 446.75 L 31.53 447.92 L 30.27 448.26 L 29.03 448.20 L 28.42 447.75 L 28.24 447.24 L 28.40 446.15 L 29.67 442.93 L 30.97 440.51 L 32.26 438.53 L 34.79 435.19 L 37.77 430.77 L 40.18 427.99 L 40.92 427.36 L 41.15 426.92 L 42.14 425.75 L 42.44 424.97 L 44.03 423.26 L 45.27 421.58 L 47.52 415.11 L 49.67 410.02 L 53.71 404.62 L 59.20 399.92 L 60.36 399.14 L 67.82 396.43 L 71.53 395.88 L 73.31 395.82 z M 78.96 450.91 L 78.96 450.91 L 81.58 452.92 L 82.00 453.35 L 83.40 456.13 L 83.60 458.80 L 82.88 461.31 L 81.82 462.89 L 81.18 463.63 L 79.35 464.95 L 78.33 465.49 L 77.00 465.96 L 74.88 466.26 L 72.75 466.10 L 70.21 465.25 L 68.41 464.03 L 67.68 463.39 L 66.18 461.14 L 65.57 458.68 L 65.85 456.06 L 67.33 453.27 L 70.44 450.87 L 74.72 449.93 z M 68.77 398.86 L 68.77 398.86 L 65.23 400.34 L 60.18 405.22 L 58.53 409.19 L 58.20 412.61 L 58.57 422.03 L 59.66 426.64 L 62.74 430.94 L 67.27 433.86 L 70.34 434.76 L 73.78 435.02 L 77.07 434.56 L 80.13 433.45 L 84.59 430.11 L 87.22 425.82 L 88.05 421.01 L 87.78 411.58 L 87.18 408.10 L 85.41 404.49 L 79.90 399.82 L 76.39 398.61 L 72.54 398.26 z M 83.43 348.12 L 83.43 348.12 L 86.74 349.03 L 94.78 353.03 L 100.28 359.22 L 103.98 365.67 L 105.11 368.89 L 105.94 370.70 L 106.46 372.21 L 108.21 374.71 L 109.98 376.11 L 111.51 378.77 L 111.24 379.10 L 110.09 379.85 L 109.93 380.15 L 109.73 381.57 L 109.75 382.37 L 110.49 383.91 L 113.08 388.01 L 115.70 392.86 L 118.06 396.82 L 119.31 399.51 L 120.27 402.36 L 120.67 404.31 L 120.70 404.98 L 120.52 405.45 L 119.77 405.74 L 118.43 405.60 L 115.56 404.33 L 114.28 404.11 L 113.67 404.37 L 113.41 404.98 L 113.57 405.85 L 114.30 407.05 L 115.43 408.27 L 117.61 410.11 L 119.43 412.02 L 122.86 417.73 L 124.05 420.36 L 124.60 423.19 L 124.47 424.79 L 123.77 426.64 L 122.64 426.85 L 120.77 425.63 L 116.70 422.09 L 115.20 420.94 L 106.12 409.91 L 103.15 406.48 L 97.92 400.87 L 91.20 395.02 L 90.10 394.28 L 84.33 391.77 L 79.82 390.29 L 76.09 389.54 L 72.32 389.25 L 67.68 389.42 L 61.45 390.26 L 60.12 390.70 L 52.11 394.43 L 45.56 398.36 L 29.87 408.98 L 28.13 409.65 L 22.99 412.02 L 21.24 412.67 L 20.64 412.53 L 20.07 412.15 L 20.00 410.28 L 20.37 408.65 L 20.84 407.39 L 21.73 405.89 L 22.61 404.73 L 24.20 403.00 L 27.81 399.73 L 29.48 398.49 L 33.65 396.45 L 34.67 395.81 L 35.67 394.92 L 36.04 393.86 L 35.96 393.53 L 35.49 393.07 L 34.34 392.91 L 30.74 393.34 L 29.72 393.11 L 29.13 392.61 L 29.11 392.27 L 29.67 390.75 L 30.29 389.61 L 32.59 386.40 L 34.02 384.91 L 37.03 382.10 L 40.77 378.26 L 44.91 374.65 L 46.01 373.42 L 46.51 371.75 L 46.00 370.40 L 45.29 369.34 L 46.94 367.68 L 47.26 367.55 L 49.13 367.42 L 49.91 366.68 L 51.11 365.79 L 52.43 363.71 L 53.18 362.93 L 56.35 358.57 L 61.33 353.75 L 68.31 349.32 L 77.16 347.68 L 79.77 347.67 z M 74.64 403.75 L 74.64 403.75 L 78.10 405.16 L 78.70 405.52 L 80.87 407.92 L 81.29 408.56 L 82.05 410.87 L 82.19 411.64 L 82.06 413.61 L 81.91 414.41 L 80.73 416.85 L 79.42 418.23 L 78.60 418.91 L 76.56 419.91 L 75.34 420.31 L 73.98 420.53 L 71.81 420.47 L 69.70 419.93 L 67.29 418.59 L 65.74 417.07 L 65.08 416.24 L 64.25 414.49 L 63.98 413.67 L 63.81 411.03 L 64.59 408.38 L 66.14 406.27 L 66.61 405.80 L 69.57 404.15 L 70.20 403.91 L 73.95 403.68 z M 852.59 329.45 L 852.59 329.45 L 853.73 330.81 L 854.47 333.46 L 854.60 335.18 L 854.36 337.45 L 852.87 340.80 L 850.77 344.80 L 848.33 349.01 L 847.43 350.14 L 845.41 352.14 L 844.34 353.55 L 843.82 354.93 L 843.79 355.27 L 844.11 355.85 L 844.41 356.01 L 845.79 356.05 L 847.44 355.37 L 848.40 355.35 L 848.76 355.65 L 848.88 356.59 L 848.80 358.04 L 848.30 360.24 L 847.43 362.59 L 844.88 367.16 L 842.68 371.72 L 839.69 376.87 L 839.37 378.43 L 839.58 379.51 L 839.80 379.76 L 841.01 380.36 L 842.00 380.47 L 842.96 380.79 L 830.66 404.19 L 829.13 406.36 L 825.35 410.92 L 823.47 412.20 L 816.87 415.80 L 815.34 416.28 L 813.56 416.68 L 808.33 417.39 L 806.73 417.40 L 799.33 416.02 L 797.16 415.38 L 792.15 412.22 L 790.01 410.63 L 771.04 392.12 L 771.33 391.84 L 772.80 391.01 L 773.61 390.02 L 773.73 389.37 L 773.36 388.23 L 772.79 387.36 L 767.98 382.96 L 764.77 379.61 L 762.67 377.64 L 760.42 375.31 L 758.96 373.02 L 758.03 371.15 L 757.94 370.00 L 758.33 369.58 L 758.88 369.43 L 761.06 369.53 L 761.90 369.31 L 762.38 368.86 L 762.41 368.20 L 761.64 366.99 L 760.51 366.04 L 756.50 363.83 L 752.26 360.06 L 747.51 355.26 L 746.17 353.20 L 745.35 349.95 L 745.53 347.49 L 745.90 346.61 L 746.36 346.19 L 747.04 346.19 L 747.90 346.37 L 754.54 349.55 L 778.33 366.44 L 787.92 370.91 L 791.19 371.58 L 797.67 372.43 L 801.51 372.54 L 804.72 372.11 L 808.06 371.50 L 811.67 370.19 L 817.54 367.38 L 820.50 365.69 L 828.13 358.56 L 845.83 334.74 L 850.90 330.05 L 852.01 329.39 z M 804.80 372.86 L 804.80 372.86 L 801.49 373.79 L 798.58 375.36 L 794.38 379.71 L 792.29 384.81 L 792.15 390.27 L 793.80 400.68 L 794.89 404.42 L 797.22 408.16 L 803.50 412.60 L 807.26 413.49 L 811.35 413.39 L 815.11 412.27 L 818.47 410.23 L 822.93 404.29 L 824.12 399.78 L 824.02 396.02 L 822.37 385.55 L 820.63 380.54 L 817.02 376.16 L 811.80 373.34 L 808.40 372.70 z M 811.19 388.98 L 811.19 388.98 L 813.79 390.06 L 815.60 391.50 L 816.44 392.37 L 817.52 394.16 L 817.95 395.10 L 818.49 398.06 L 818.24 400.33 L 818.04 401.16 L 816.77 403.70 L 816.30 404.37 L 813.58 406.60 L 812.88 407.01 L 809.19 407.82 L 808.38 407.86 L 804.75 406.88 L 803.98 406.52 L 801.47 404.27 L 800.88 403.55 L 799.79 401.15 L 799.50 400.22 L 799.34 398.07 L 799.38 397.08 L 799.87 395.14 L 800.27 394.12 L 801.38 392.41 L 802.16 391.48 L 804.01 390.12 L 805.40 389.38 L 806.65 388.96 L 808.86 388.70 z M 683.08 278.35 L 683.08 278.35 L 682.71 277.25 L 682.53 275.77 L 682.68 274.70 L 683.08 273.89 L 683.83 273.13 L 684.96 272.38 L 686.55 271.67 L 688.56 271.03 L 689.80 270.85 L 691.04 270.87 L 692.26 271.04 L 693.18 271.41 L 693.91 272.12 L 694.30 273.11 L 694.49 274.11 L 694.52 275.58 L 694.29 277.53 L 692.98 283.08 L 692.86 284.58 L 693.11 287.15 L 693.53 288.36 L 694.30 289.83 L 695.98 292.26 L 699.07 295.83 L 699.95 297.40 L 700.54 298.88 L 700.88 300.71 L 700.87 302.10 L 700.66 303.64 L 699.77 305.32 L 699.16 305.75 L 698.23 305.03 L 697.01 303.25 L 695.91 302.39 L 695.18 302.34 L 694.54 302.48 L 693.38 303.85 L 691.66 308.52 L 690.15 311.87 L 679.83 331.57 L 677.93 336.03 L 677.21 338.27 L 675.89 343.29 L 675.15 345.12 L 673.93 346.80 L 673.09 347.50 L 671.60 348.33 L 665.56 350.55 L 663.48 351.77 L 661.30 353.44 L 657.46 357.45 L 656.04 359.38 L 654.90 361.24 L 653.97 364.04 L 653.70 365.48 L 653.39 368.38 L 652.88 370.23 L 652.38 371.04 L 651.21 372.24 L 649.98 372.97 L 645.54 374.59 L 642.94 375.73 L 640.51 377.04 L 638.77 378.22 L 637.00 379.72 L 635.69 381.16 L 634.67 382.66 L 634.07 384.11 L 633.42 386.51 L 633.17 388.12 L 633.13 390.15 L 633.48 392.10 L 635.20 396.18 L 635.33 397.29 L 635.14 397.63 L 634.07 398.06 L 631.37 398.39 L 629.54 398.91 L 628.47 399.54 L 627.23 400.75 L 625.35 403.43 L 624.35 404.52 L 623.09 405.46 L 622.16 405.79 L 621.52 405.62 L 620.99 404.91 L 620.70 404.05 L 620.54 402.68 L 620.69 401.31 L 621.51 398.00 L 621.72 396.12 L 621.48 394.51 L 620.80 392.46 L 619.96 390.95 L 619.27 389.17 L 619.35 388.23 L 619.78 387.61 L 620.88 387.02 L 623.86 386.26 L 625.57 385.68 L 628.05 383.63 L 630.04 380.93 L 630.73 379.60 L 632.21 375.83 L 633.52 373.38 L 635.41 370.97 L 638.34 367.66 L 641.07 363.92 L 642.67 362.29 L 643.51 361.75 L 645.11 361.27 L 648.52 360.90 L 651.48 360.11 L 652.61 359.50 L 655.63 357.07 L 657.25 355.41 L 660.08 351.75 L 661.17 349.96 L 661.88 348.36 L 662.44 346.55 L 663.42 342.49 L 663.92 341.10 L 664.51 340.06 L 665.52 339.03 L 666.36 338.48 L 667.59 337.92 L 670.85 336.77 L 672.58 335.89 L 673.60 335.21 L 675.39 333.69 L 678.12 330.48 L 679.77 328.12 L 681.35 325.41 L 683.75 320.11 L 684.84 316.75 L 685.49 313.11 L 686.24 303.11 L 686.17 301.58 L 685.93 300.96 L 685.29 300.11 L 685.00 299.93 L 683.67 299.74 L 683.33 299.79 L 681.47 300.61 L 680.65 300.61 L 680.26 300.41 L 679.67 299.19 L 679.45 298.28 L 679.42 296.86 L 680.04 294.85 L 680.66 294.00 L 682.23 292.56 L 684.53 290.81 L 686.11 288.82 L 686.64 287.40 L 686.64 285.65 L 686.14 283.91 L 685.42 282.45 z M 77.71 350.72 L 77.71 350.72 L 73.76 351.71 L 67.95 355.79 L 65.75 359.31 L 64.78 362.80 L 63.46 372.45 L 63.72 377.33 L 65.86 382.05 L 70.00 386.03 L 73.00 387.51 L 76.38 388.37 L 79.64 388.47 L 82.93 387.88 L 87.98 385.28 L 91.47 381.22 L 93.03 376.73 L 94.46 366.97 L 94.48 363.26 L 93.32 359.30 L 88.76 353.71 L 85.41 351.81 L 81.55 350.77 z M 94.30 299.88 L 94.30 299.88 L 97.45 300.36 L 100.92 301.42 L 103.81 302.78 L 111.32 308.31 L 114.97 314.03 L 115.74 315.45 L 118.81 323.66 L 119.36 325.89 L 120.04 327.49 L 120.23 328.34 L 121.10 329.76 L 124.22 338.09 L 122.82 338.48 L 121.90 339.18 L 121.45 339.81 L 121.31 340.92 L 121.60 342.30 L 123.74 347.39 L 127.25 357.07 L 127.73 358.80 L 128.24 361.72 L 128.31 363.41 L 128.23 364.13 L 127.82 364.83 L 127.54 364.95 L 126.78 364.85 L 125.93 364.57 L 123.78 363.25 L 122.74 363.07 L 122.41 363.12 L 121.91 363.56 L 121.83 363.89 L 121.90 364.79 L 123.48 367.43 L 124.45 368.58 L 126.25 371.22 L 127.31 373.64 L 129.85 380.80 L 129.99 383.52 L 129.57 385.57 L 128.42 387.49 L 127.95 387.93 L 127.53 388.01 L 127.17 387.91 L 125.54 386.52 L 121.96 382.14 L 121.10 381.29 L 110.91 363.65 L 106.91 357.46 L 100.44 349.70 L 93.86 345.41 L 89.95 343.38 L 86.53 342.10 L 83.10 341.28 L 78.71 340.78 L 70.66 340.69 L 61.07 343.50 L 56.80 345.25 L 36.07 355.28 L 34.69 355.58 L 29.23 357.22 L 27.44 357.50 L 26.93 357.34 L 26.42 356.56 L 26.50 354.45 L 27.39 352.14 L 29.55 349.56 L 33.23 346.80 L 37.45 344.04 L 38.91 343.40 L 42.24 342.30 L 43.89 341.62 L 44.59 341.21 L 45.25 340.23 L 45.26 339.89 L 44.92 339.33 L 43.95 338.86 L 40.78 338.65 L 40.11 338.33 L 39.69 337.76 L 39.71 337.19 L 40.58 335.69 L 41.94 334.17 L 44.13 332.04 L 48.59 328.94 L 52.64 325.90 L 57.85 322.50 L 58.81 321.49 L 59.04 321.04 L 59.16 319.84 L 58.52 318.57 L 57.67 317.69 L 64.43 312.92 L 66.07 312.13 L 68.33 310.51 L 70.24 308.76 L 77.32 303.71 L 78.78 302.95 L 84.98 300.26 z M 744.06 375.38 L 744.06 375.38 L 744.85 377.24 L 746.14 379.46 L 745.75 379.58 L 743.22 379.55 L 742.00 379.38 L 740.81 379.06 L 740.18 378.66 L 739.23 377.76 L 738.38 376.33 L 737.85 374.88 L 737.75 373.90 L 737.83 372.90 L 738.17 371.91 L 738.73 371.22 L 739.36 370.77 z M 878.90 370.99 L 878.90 370.99 L 879.39 371.63 L 880.00 373.34 L 879.87 374.81 L 879.55 375.94 L 878.72 377.44 L 877.88 378.31 L 876.82 378.96 L 874.53 379.34 L 872.46 379.38 L 871.88 379.26 L 873.32 376.56 L 873.82 375.28 L 878.46 370.73 z M 81.88 356.42 L 81.88 356.42 L 82.69 356.64 L 85.81 358.54 L 86.45 359.09 L 88.18 361.78 L 88.54 362.59 L 88.90 365.00 L 88.92 365.88 L 88.49 367.82 L 88.18 368.65 L 87.20 370.23 L 86.59 370.98 L 85.09 372.16 L 84.12 372.75 L 81.93 373.44 L 80.59 373.67 L 79.22 373.68 L 77.12 373.29 L 74.99 372.37 L 72.84 370.67 L 71.54 368.89 L 70.99 367.88 L 70.46 366.00 L 70.32 365.09 L 70.60 362.35 L 71.83 359.75 L 73.69 357.89 L 74.31 357.43 L 77.44 356.25 L 78.23 356.09 z M 834.42 272.84 L 834.42 272.84 L 835.57 275.37 L 835.96 277.04 L 836.08 279.31 L 835.13 282.86 L 833.68 287.14 L 831.95 291.65 L 831.21 292.93 L 829.54 295.22 L 828.78 296.61 L 828.41 298.23 L 828.59 298.87 L 828.85 299.09 L 829.50 299.19 L 830.37 299.07 L 832.04 298.09 L 833.00 297.92 L 833.39 298.16 L 833.66 299.07 L 833.81 300.51 L 833.65 302.77 L 833.18 305.23 L 831.34 310.22 L 829.89 315.02 L 827.75 320.56 L 827.67 322.11 L 827.93 322.95 L 828.40 323.41 L 829.68 323.79 L 830.60 323.74 L 831.60 323.90 L 823.12 348.93 L 821.95 351.29 L 818.92 356.42 L 817.28 357.98 L 811.68 362.29 L 809.87 363.28 L 808.17 363.94 L 803.11 365.46 L 801.54 365.73 L 794.03 365.53 L 791.78 365.23 L 786.32 362.87 L 783.97 361.64 L 762.35 346.34 L 762.58 346.02 L 763.91 344.96 L 764.61 343.60 L 764.58 343.26 L 764.02 342.13 L 763.36 341.38 L 757.84 337.75 L 754.18 334.96 L 751.81 333.34 L 749.07 331.26 L 747.41 329.36 L 746.22 327.67 L 745.95 326.54 L 746.26 326.07 L 746.78 325.83 L 748.94 325.58 L 749.72 325.25 L 750.14 324.74 L 750.07 324.08 L 749.09 322.96 L 747.94 322.26 L 743.54 320.66 L 739.70 318.27 L 733.33 313.61 L 731.69 311.77 L 730.36 308.71 L 730.15 306.26 L 730.39 305.33 L 730.78 304.84 L 731.48 304.74 L 732.66 304.83 L 739.09 306.73 L 765.52 319.85 L 775.70 322.76 L 779.04 322.90 L 785.47 322.73 L 789.29 322.25 L 792.51 321.30 L 795.56 320.23 L 798.97 318.37 L 804.39 314.64 L 806.99 312.57 L 813.47 304.27 L 827.23 277.97 L 831.50 272.56 L 832.49 271.72 L 833.08 271.69 z M 796.22 321.31 L 796.22 321.31 L 792.67 322.03 L 789.53 323.49 L 786.86 325.54 L 783.46 330.41 L 782.19 335.82 L 782.89 341.12 L 786.20 351.34 L 787.87 354.84 L 790.78 358.15 L 797.36 361.41 L 801.59 361.77 L 805.47 361.03 L 809.01 359.34 L 812.16 356.60 L 815.58 350.01 L 815.96 345.61 L 815.27 341.91 L 811.97 331.74 L 809.47 327.08 L 805.30 323.43 L 799.73 321.44 z M 804.27 337.63 L 804.27 337.63 L 806.22 338.73 L 807.23 339.51 L 808.54 341.05 L 809.14 341.97 L 809.87 343.84 L 810.13 344.81 L 810.24 347.01 L 810.17 347.98 L 809.35 350.53 L 808.92 351.42 L 806.72 353.90 L 805.92 354.54 L 802.61 355.85 L 801.60 356.05 L 798.08 355.67 L 797.05 355.38 L 794.39 353.66 L 793.56 352.92 L 792.18 350.83 L 791.71 349.86 L 791.23 347.84 L 791.11 346.78 L 791.29 344.84 L 791.52 343.72 L 792.32 341.94 L 792.99 340.82 L 794.63 339.18 L 795.81 338.29 L 797.01 337.65 L 799.15 337.04 L 801.42 336.94 z M 74.90 263.38 L 74.90 263.38 L 79.67 259.77 L 80.81 258.38 L 81.26 257.19 L 81.35 255.78 L 80.90 254.64 L 80.69 254.38 L 79.80 253.84 L 78.79 253.61 L 77.03 253.53 L 75.40 253.24 L 74.85 252.85 L 74.60 251.89 L 74.89 250.30 L 75.35 249.35 L 76.42 247.72 L 79.42 243.98 L 82.73 240.71 L 84.85 239.07 L 86.36 238.69 L 88.56 238.88 L 89.47 238.72 L 89.75 238.53 L 90.18 237.91 L 90.26 237.58 L 90.04 236.96 L 87.33 235.23 L 86.40 234.39 L 86.17 233.98 L 86.52 233.22 L 89.18 231.17 L 93.21 229.34 L 97.49 227.07 L 102.04 225.16 L 102.95 224.58 L 103.64 223.45 L 103.68 223.11 L 103.36 221.53 L 102.54 220.38 L 112.33 215.60 L 113.55 215.20 L 115.03 214.27 L 124.16 209.77 L 125.88 209.20 L 132.31 207.55 L 133.29 207.57 L 141.68 208.64 L 145.43 209.94 L 147.41 210.90 L 150.72 213.05 L 156.74 219.00 L 157.36 219.76 L 160.03 225.85 L 160.63 227.55 L 162.70 237.52 L 162.87 239.25 L 163.31 240.48 L 165.57 251.12 L 164.20 251.19 L 162.72 251.93 L 162.48 252.16 L 162.02 253.37 L 162.13 254.55 L 163.42 259.22 L 164.26 263.99 L 165.29 268.28 L 165.32 271.66 L 164.95 272.40 L 164.48 272.47 L 163.23 272.24 L 160.37 271.22 L 160.03 271.20 L 159.46 271.53 L 159.15 272.37 L 159.18 272.71 L 159.67 273.63 L 161.11 275.15 L 161.73 276.58 L 161.75 279.26 L 161.23 283.83 L 160.09 288.63 L 159.49 290.38 L 158.81 291.67 L 157.94 292.53 L 157.03 292.94 L 156.39 292.75 L 155.16 291.63 L 154.01 290.30 L 153.18 289.62 L 152.23 289.28 L 151.90 289.28 L 150.54 289.73 L 149.73 290.48 L 149.05 291.54 L 148.62 293.33 L 148.63 304.11 L 148.26 309.68 L 148.65 312.05 L 149.03 312.98 L 149.17 314.07 L 149.06 314.55 L 148.50 315.10 L 147.80 315.28 L 146.24 315.09 L 144.81 314.47 L 143.21 313.57 L 139.27 310.76 L 137.66 309.11 L 136.75 307.80 L 136.49 307.59 L 135.83 307.52 L 135.28 307.89 L 135.15 308.20 L 135.18 309.35 L 135.95 311.28 L 136.46 312.14 L 137.85 313.96 L 138.81 315.48 L 140.06 318.65 L 140.32 320.39 L 140.45 322.42 L 140.28 323.16 L 139.90 323.17 L 138.14 321.60 L 137.83 321.46 L 136.92 321.46 L 136.45 321.92 L 136.28 322.90 L 136.70 324.86 L 138.98 329.13 L 139.88 331.49 L 140.82 334.80 L 142.13 341.06 L 142.24 342.99 L 142.14 344.42 L 141.07 347.19 L 139.48 349.01 L 138.96 349.33 L 138.02 349.33 L 136.78 348.03 L 133.29 342.01 L 122.74 315.12 L 117.73 306.00 L 115.70 303.82 L 112.39 300.74 L 106.70 296.49 L 104.84 295.66 L 103.20 294.77 L 96.28 292.86 L 91.67 292.11 L 88.72 291.85 L 78.27 293.59 L 50.78 301.78 L 43.89 302.74 L 42.12 302.56 L 41.55 301.82 L 41.48 301.21 L 41.93 298.81 L 43.45 296.29 L 44.50 295.34 L 46.12 294.22 L 51.88 291.39 L 55.02 290.10 L 57.45 289.38 L 62.17 288.54 L 64.00 287.66 L 64.60 287.06 L 64.79 286.42 L 64.69 286.10 L 64.05 285.46 L 61.57 284.97 L 61.35 284.67 L 61.83 284.08 L 65.04 282.06 L 68.33 281.08 L 70.08 280.92 L 72.28 280.89 L 73.40 280.75 L 75.37 280.20 L 76.33 279.46 L 76.51 278.82 L 76.18 278.20 L 75.89 278.03 L 74.01 278.08 L 71.13 277.70 L 68.44 276.92 L 65.40 275.74 L 64.07 275.02 L 62.92 273.89 L 62.64 273.24 L 62.72 272.45 L 63.03 272.06 L 63.99 271.51 L 65.03 271.20 L 67.15 270.01 L 71.22 266.36 z M 90.28 303.71 L 90.28 303.71 L 83.81 306.91 L 81.05 310.14 L 79.51 313.51 L 76.64 323.01 L 76.08 327.99 L 77.41 333.11 L 80.88 337.80 L 83.66 339.84 L 86.87 341.22 L 90.24 341.86 L 93.53 341.78 L 99.02 339.91 L 103.05 336.47 L 105.49 331.91 L 108.46 322.24 L 109.04 318.70 L 108.46 314.26 L 104.89 308.06 L 101.80 305.59 L 98.27 303.99 L 94.37 303.32 z M 93.86 308.94 L 93.86 308.94 L 97.38 309.64 L 98.43 310.14 L 101.14 312.48 L 101.77 313.24 L 103.01 316.20 L 103.25 317.20 L 103.22 319.68 L 103.07 320.68 L 102.32 322.58 L 101.84 323.48 L 100.60 324.92 L 99.80 325.67 L 98.12 326.65 L 96.97 327.13 L 94.71 327.51 L 93.26 327.55 L 91.89 327.36 L 89.73 326.60 L 87.82 325.38 L 86.84 324.42 L 85.97 323.25 L 84.88 321.24 L 84.56 320.03 L 84.30 318.09 L 84.39 317.01 L 84.76 315.15 L 85.16 314.23 L 86.20 312.46 L 86.89 311.74 L 88.84 310.17 L 89.78 309.76 L 92.88 308.92 z M 717.42 267.00 L 717.42 267.00 L 745.58 275.82 L 756.08 277.11 L 759.34 276.73 L 765.82 275.53 L 769.43 274.49 L 772.49 273.03 L 775.39 271.45 L 778.44 269.07 L 783.16 264.60 L 785.40 262.15 L 790.42 253.08 L 799.97 224.79 L 803.35 218.79 L 804.20 217.82 L 804.79 217.68 L 806.27 218.62 L 807.80 220.92 L 808.16 221.64 L 808.91 224.46 L 808.56 228.40 L 807.79 232.85 L 806.78 237.59 L 806.26 238.96 L 804.96 241.48 L 804.37 243.16 L 804.30 244.64 L 804.58 245.24 L 804.86 245.42 L 805.43 245.45 L 806.54 245.08 L 807.89 243.93 L 808.80 243.62 L 809.23 243.80 L 809.63 244.63 L 810.01 246.05 L 810.21 248.27 L 810.06 251.23 L 809.10 255.92 L 808.41 260.95 L 807.15 266.79 L 807.36 268.43 L 807.70 269.12 L 808.23 269.51 L 809.48 269.69 L 810.47 269.50 L 811.48 269.50 L 807.02 295.53 L 806.23 298.06 L 804.04 303.59 L 802.65 305.39 L 797.48 310.85 L 796.17 311.78 L 791.45 314.31 L 789.87 314.99 L 788.33 315.50 L 780.89 316.48 L 778.62 316.54 L 772.85 315.07 L 770.35 314.22 L 746.59 302.48 L 746.77 302.14 L 747.91 300.88 L 748.40 299.44 L 748.32 299.11 L 747.58 298.06 L 746.83 297.44 L 740.82 294.72 L 736.74 292.52 L 734.14 291.30 L 731.13 289.68 L 729.18 288.05 L 727.74 286.56 L 727.29 285.50 L 727.53 284.99 L 728.01 284.66 L 730.12 284.08 L 730.82 283.64 L 731.16 283.07 L 730.99 282.43 L 729.84 281.47 L 728.58 280.96 L 724.02 280.07 L 719.81 278.29 L 712.80 274.69 L 710.90 273.14 L 709.11 270.32 L 708.53 267.93 L 708.61 266.99 L 709.09 266.32 L 710.44 266.13 z M 776.03 272.50 L 776.03 272.50 L 772.83 273.69 L 769.89 275.64 L 767.55 278.11 L 764.96 283.45 L 764.54 288.98 L 766.07 294.15 L 770.93 303.70 L 773.08 306.82 L 776.67 309.77 L 783.69 311.93 L 787.63 311.63 L 791.41 310.30 L 794.72 308.04 L 797.28 305.05 L 799.74 297.88 L 799.42 293.37 L 798.18 289.83 L 793.36 280.38 L 790.11 276.09 L 785.39 273.11 L 779.46 272.04 z M 786.64 287.33 L 786.64 287.33 L 788.73 288.11 L 789.86 288.72 L 791.39 290.04 L 792.13 290.85 L 793.15 292.59 L 793.55 293.50 L 794.00 295.67 L 794.08 296.63 L 793.68 299.28 L 793.39 300.22 L 791.60 303.01 L 790.91 303.77 L 787.85 305.56 L 786.87 305.93 L 783.34 306.11 L 782.28 305.98 L 779.38 304.69 L 778.45 304.10 L 776.76 302.25 L 776.14 301.37 L 775.35 299.46 L 775.06 298.41 L 774.94 296.48 L 775.00 295.34 L 775.50 293.44 L 775.99 292.25 L 777.35 290.37 L 778.38 289.30 L 779.49 288.47 L 781.53 287.54 L 783.71 287.10 z M 747.76 226.49 L 747.76 226.49 L 750.41 223.65 L 754.35 218.50 L 756.22 215.64 L 759.73 205.99 L 764.74 176.55 L 767.14 170.08 L 767.82 168.99 L 768.38 168.78 L 770.00 169.46 L 771.87 171.51 L 772.77 172.96 L 773.57 175.10 L 773.77 178.76 L 773.72 183.28 L 773.46 188.13 L 773.16 189.55 L 772.28 192.25 L 771.96 194.00 L 772.13 195.47 L 772.26 195.78 L 772.81 196.15 L 773.15 196.15 L 774.40 195.56 L 775.54 194.21 L 776.41 193.76 L 776.85 193.86 L 777.38 194.64 L 777.98 195.97 L 778.52 198.15 L 778.82 200.64 L 778.62 205.95 L 778.73 210.98 L 778.41 216.89 L 778.82 218.40 L 779.30 219.11 L 779.89 219.42 L 781.16 219.40 L 782.09 219.05 L 783.10 218.90 L 782.76 245.31 L 782.38 247.95 L 781.08 253.75 L 780.00 255.74 L 776.02 261.56 L 774.60 263.06 L 773.20 264.20 L 768.85 267.23 L 767.44 267.97 L 760.23 270.09 L 757.99 270.51 L 752.10 269.95 L 749.47 269.51 L 724.17 261.64 L 724.30 261.26 L 725.22 259.86 L 725.49 258.41 L 725.39 258.09 L 724.47 257.12 L 723.59 256.60 L 717.28 254.87 L 712.89 253.33 L 710.13 252.53 L 706.89 251.41 L 704.71 250.10 L 703.05 248.86 L 702.45 247.88 L 702.60 247.33 L 703.03 246.94 L 705.02 246.04 L 705.65 245.49 L 705.88 244.87 L 705.62 244.26 L 704.37 243.50 L 702.93 243.18 L 698.34 243.02 L 697.36 242.85 L 692.88 241.59 L 686.45 239.47 L 684.33 238.24 L 682.13 235.72 L 681.17 233.47 L 681.11 232.50 L 681.32 231.92 L 681.93 231.62 L 682.77 231.39 L 689.80 231.15 L 718.83 235.45 L 729.58 235.08 L 732.74 234.20 L 738.94 232.00 L 742.41 230.37 L 745.11 228.50 z M 168.37 164.74 L 168.37 164.74 L 175.59 166.89 L 177.04 167.64 L 178.54 168.60 L 182.70 171.75 L 183.88 172.92 L 188.16 179.11 L 189.24 181.08 L 190.54 186.89 L 190.93 189.48 L 191.32 215.76 L 190.91 215.76 L 189.27 215.34 L 188.04 215.49 L 187.50 215.87 L 186.98 216.89 L 186.76 217.91 L 187.08 224.40 L 187.00 229.03 L 187.11 231.98 L 187.06 235.05 L 186.48 237.81 L 185.81 239.83 L 185.09 240.67 L 184.56 240.69 L 184.02 240.42 L 182.53 238.81 L 181.78 238.29 L 181.13 238.24 L 180.83 238.39 L 180.52 238.89 L 180.26 240.20 L 180.41 241.49 L 181.73 246.02 L 182.07 250.43 L 182.09 258.22 L 181.56 260.62 L 179.95 263.32 L 178.10 264.89 L 177.26 265.23 L 176.50 265.14 L 175.49 263.72 L 173.51 257.99 L 173.19 257.33 L 168.12 228.59 L 164.53 218.80 L 162.74 216.11 L 158.78 210.97 L 156.02 208.03 L 153.43 206.06 L 150.86 204.28 L 147.15 202.52 L 140.98 200.33 L 137.96 199.49 L 127.43 199.09 L 98.45 203.17 L 91.59 202.88 L 90.25 202.55 L 89.83 202.02 L 89.92 200.52 L 91.65 197.48 L 92.38 196.75 L 94.05 195.44 L 96.65 194.36 L 101.63 192.78 L 106.29 191.56 L 107.81 191.41 L 110.69 191.43 L 112.50 191.20 L 113.78 190.62 L 114.04 190.40 L 114.22 189.76 L 113.94 189.18 L 113.10 188.43 L 111.43 187.71 L 110.68 186.98 L 110.67 186.54 L 111.20 185.86 L 112.34 184.87 L 114.22 183.68 L 116.84 182.51 L 121.66 181.21 L 126.46 179.54 L 132.08 178.08 L 133.34 177.28 L 133.99 176.47 L 134.07 176.15 L 133.62 174.65 L 133.06 173.95 L 132.61 173.03 L 157.66 165.30 L 160.23 164.87 L 166.17 164.32 z M 748.56 227.41 L 748.56 227.41 L 745.56 229.09 L 743.02 231.43 L 741.10 234.19 L 739.33 239.97 L 739.78 245.48 L 742.13 250.40 L 748.37 259.01 L 751.00 261.77 L 754.76 264.05 L 762.29 265.16 L 766.14 264.24 L 769.73 262.30 L 772.58 259.58 L 774.64 256.24 L 775.94 248.76 L 774.97 244.45 L 773.13 241.06 L 766.91 232.49 L 763.03 228.76 L 757.94 226.57 L 752.02 226.40 z M 763.54 240.85 L 763.54 240.85 L 764.76 241.27 L 766.46 242.33 L 767.32 243.02 L 768.61 244.58 L 769.15 245.41 L 769.93 247.47 L 770.16 248.40 L 770.17 251.10 L 770.03 252.07 L 768.70 255.12 L 768.15 255.97 L 765.40 258.22 L 764.51 258.73 L 761.03 259.46 L 759.97 259.50 L 756.90 258.69 L 755.89 258.25 L 753.93 256.68 L 753.18 255.90 L 752.10 254.14 L 751.65 253.16 L 751.23 251.27 L 751.11 250.14 L 751.32 248.18 L 751.61 246.91 L 752.64 244.88 L 753.49 243.66 L 754.45 242.66 L 756.34 241.40 L 758.49 240.62 L 761.36 240.40 z M 137.29 211.83 L 137.29 211.83 L 130.29 213.98 L 127.05 216.63 L 124.86 219.86 L 120.18 229.55 L 118.97 234.09 L 119.47 239.55 L 121.61 243.82 L 122.41 245.13 L 125.04 247.63 L 127.51 249.15 L 130.33 250.20 L 134.08 250.71 L 139.90 249.64 L 144.48 246.76 L 147.50 242.84 L 152.24 233.21 L 153.48 229.25 L 153.56 225.40 L 151.01 218.66 L 148.76 215.91 L 145.12 213.42 L 140.54 211.94 z M 140.32 217.50 L 140.32 217.50 L 143.58 218.93 L 144.43 219.50 L 146.67 222.26 L 147.18 223.17 L 147.87 226.25 L 147.94 227.32 L 147.45 229.76 L 147.11 230.76 L 146.05 232.50 L 145.39 233.32 L 143.92 234.52 L 142.99 235.12 L 141.16 235.81 L 139.92 236.11 L 137.66 236.11 L 136.19 235.89 L 134.86 235.47 L 132.92 234.38 L 131.25 232.84 L 129.71 230.37 L 129.11 228.24 L 128.93 227.00 L 129.09 225.01 L 129.30 223.95 L 130.08 222.14 L 130.57 221.30 L 132.03 219.69 L 132.75 219.08 L 135.11 217.87 L 136.02 217.57 L 139.33 217.39 z M 201.48 127.32 L 201.48 127.32 L 207.40 127.79 L 209.52 128.59 L 215.84 131.73 L 217.53 132.93 L 218.88 134.17 L 222.46 138.03 L 223.39 139.34 L 226.51 146.18 L 227.23 148.32 L 227.50 154.25 L 227.42 156.91 L 223.16 183.03 L 222.76 182.95 L 221.31 182.27 L 219.80 182.17 L 219.49 182.32 L 218.65 183.37 L 218.24 184.39 L 217.43 190.83 L 216.53 195.34 L 216.11 198.22 L 215.46 201.54 L 214.47 203.87 L 213.47 205.69 L 212.59 206.44 L 212.05 206.35 L 211.58 205.99 L 210.42 204.16 L 209.82 203.62 L 209.29 203.42 L 208.67 203.65 L 208.47 203.92 L 207.95 205.33 L 207.87 206.49 L 208.37 211.15 L 208.34 212.13 L 207.66 217.12 L 206.54 223.36 L 205.61 225.63 L 203.47 228.13 L 201.37 229.37 L 200.45 229.57 L 199.66 229.30 L 199.06 228.00 L 197.86 220.81 L 198.00 191.73 L 196.14 181.33 L 194.83 178.35 L 191.84 172.59 L 189.71 169.34 L 187.44 166.88 L 185.10 164.56 L 181.99 162.36 L 176.26 159.11 L 173.20 157.66 L 162.91 155.49 L 133.43 154.59 L 126.73 153.13 L 125.52 152.58 L 125.22 152.04 L 125.59 150.48 L 127.42 148.22 L 128.71 147.19 L 130.74 146.07 L 134.44 145.37 L 138.70 144.83 L 143.54 144.42 L 145.01 144.52 L 147.81 145.03 L 149.58 145.10 L 151.01 144.74 L 151.30 144.57 L 151.59 143.97 L 151.55 143.64 L 150.77 142.48 L 149.27 141.51 L 148.69 140.71 L 148.73 140.27 L 149.42 139.64 L 150.66 138.87 L 152.75 138.03 L 155.21 137.38 L 160.47 136.85 L 165.43 136.05 L 171.40 135.53 L 172.75 134.93 L 173.39 134.37 L 173.61 133.75 L 173.41 132.47 L 172.94 131.61 L 172.65 130.64 L 198.83 127.30 z M 687.76 219.19 L 687.76 219.19 L 683.18 218.36 L 680.33 218.00 L 677.16 217.44 L 674.62 216.45 L 672.78 215.46 L 672.03 214.60 L 672.10 214.04 L 672.46 213.59 L 674.28 212.38 L 674.81 211.72 L 674.94 211.08 L 674.58 210.52 L 673.23 209.98 L 671.77 209.89 L 667.23 210.46 L 666.24 210.44 L 661.59 209.90 L 654.91 208.81 L 652.63 207.92 L 650.05 205.78 L 648.75 203.70 L 648.54 202.76 L 648.67 202.16 L 649.23 201.75 L 650.02 201.39 L 656.92 200.06 L 686.23 199.77 L 696.74 197.74 L 699.86 196.33 L 705.51 193.26 L 708.69 191.11 L 713.39 186.45 L 715.61 183.18 L 718.70 177.46 L 720.10 174.35 L 722.08 164.09 L 722.40 134.41 L 723.75 127.63 L 724.25 126.46 L 724.75 126.16 L 726.48 126.59 L 728.65 128.30 L 729.76 129.62 L 730.90 131.60 L 731.66 135.18 L 732.31 139.63 L 732.82 144.48 L 732.74 145.93 L 732.30 148.74 L 732.25 150.51 L 732.64 151.94 L 733.09 152.43 L 733.42 152.51 L 733.96 152.36 L 734.90 151.67 L 735.83 150.17 L 736.61 149.59 L 737.07 149.62 L 737.71 150.30 L 738.50 151.51 L 739.40 153.60 L 740.16 156.45 L 740.69 161.20 L 741.60 166.19 L 742.20 172.10 L 742.89 173.62 L 743.44 174.18 L 744.07 174.38 L 745.23 174.18 L 746.19 173.67 L 747.15 173.36 L 750.95 199.52 L 750.98 202.15 L 750.62 208.09 L 749.86 210.23 L 746.62 217.02 L 745.66 218.31 L 744.45 219.67 L 740.64 223.32 L 739.36 224.27 L 732.58 227.51 L 730.43 228.27 L 724.51 228.65 L 721.85 228.62 L 695.63 224.80 L 695.70 224.41 L 696.39 222.86 L 696.40 221.34 L 696.22 221.05 L 695.21 220.29 L 694.28 219.92 z M 717.54 185.65 L 717.54 185.65 L 714.37 187.16 L 711.67 189.31 L 709.44 192.16 L 708.03 195.10 L 707.22 201.01 L 708.53 206.40 L 711.56 210.82 L 719.07 218.35 L 722.23 220.77 L 726.24 222.39 L 733.84 222.31 L 737.56 220.77 L 740.68 218.37 L 743.15 215.12 L 744.64 211.58 L 744.76 204.06 L 743.03 199.74 L 740.78 196.82 L 733.21 189.26 L 728.88 186.25 L 723.53 184.88 z M 731.27 198.10 L 731.27 198.10 L 732.52 198.32 L 734.39 199.12 L 735.34 199.66 L 736.85 200.99 L 737.52 201.74 L 738.61 203.65 L 738.99 204.54 L 739.41 207.19 L 739.43 208.18 L 738.59 211.39 L 738.18 212.32 L 735.82 214.98 L 735.01 215.62 L 731.70 216.88 L 730.66 217.09 L 727.50 216.75 L 726.43 216.48 L 724.25 215.25 L 723.39 214.60 L 722.05 213.02 L 721.45 212.11 L 720.74 210.33 L 720.44 209.22 L 720.34 207.24 L 720.43 205.96 L 721.14 203.77 L 721.79 202.42 L 722.58 201.31 L 724.21 199.79 L 726.19 198.68 L 729.02 198.00 z M 163.04 170.71 L 163.04 170.71 L 159.19 173.02 L 156.61 175.73 L 150.42 184.25 L 148.11 189.03 L 147.61 194.52 L 149.36 200.27 L 151.35 203.16 L 153.93 205.53 L 156.94 207.21 L 160.18 208.17 L 166.29 208.03 L 171.10 206.01 L 175.14 202.21 L 181.26 193.79 L 183.12 190.39 L 184.12 186.03 L 182.86 178.72 L 180.77 175.28 L 177.88 172.52 L 174.28 170.57 L 170.53 169.67 z M 246.09 96.98 L 246.09 96.98 L 248.70 97.46 L 254.44 98.94 L 256.40 100.11 L 262.44 104.58 L 263.53 105.76 L 264.65 107.23 L 267.50 111.65 L 268.18 113.08 L 270.06 120.37 L 270.40 122.61 L 269.64 128.49 L 269.10 131.10 L 260.35 156.11 L 259.97 155.97 L 258.59 155.00 L 257.17 154.68 L 256.85 154.77 L 255.84 155.67 L 255.30 156.49 L 253.34 162.77 L 251.66 167.10 L 250.76 169.83 L 249.52 173.01 L 248.14 175.14 L 246.84 176.76 L 245.84 177.34 L 245.31 177.16 L 244.93 176.73 L 244.09 174.71 L 243.50 174.00 L 243.21 173.84 L 242.55 173.89 L 242.28 174.10 L 241.47 175.42 L 241.18 176.61 L 240.85 181.27 L 239.62 185.61 L 236.90 193.02 L 235.59 195.10 L 233.00 197.21 L 230.71 198.08 L 229.75 198.12 L 229.18 197.88 L 228.89 197.23 L 228.65 196.08 L 228.69 189.37 L 233.99 160.36 L 234.00 149.77 L 233.22 146.53 L 231.28 140.40 L 229.77 136.86 L 227.96 134.00 L 226.03 131.30 L 223.36 128.61 L 218.29 124.44 L 215.58 122.50 L 205.97 118.62 L 176.75 112.58 L 170.37 109.98 L 169.31 109.24 L 169.10 108.66 L 169.75 107.18 L 171.93 105.28 L 172.61 104.84 L 175.61 103.71 L 179.25 103.64 L 183.75 103.86 L 188.60 104.28 L 190.03 104.63 L 192.68 105.61 L 194.40 105.99 L 195.89 105.88 L 196.20 105.76 L 196.59 105.22 L 196.61 104.88 L 196.15 103.76 L 194.76 102.41 L 194.33 101.53 L 194.46 101.09 L 195.24 100.59 L 196.60 100.05 L 198.82 99.58 L 201.31 99.36 L 206.60 99.75 L 210.80 99.77 L 217.52 100.34 L 219.05 99.99 L 219.95 99.35 L 220.09 99.04 L 220.12 97.68 L 219.81 96.74 L 219.69 95.73 z M 171.47 175.69 L 171.47 175.69 L 172.44 175.97 L 175.40 177.93 L 176.15 178.65 L 177.86 181.74 L 178.21 182.73 L 178.33 185.92 L 178.21 187.01 L 177.31 189.32 L 176.79 190.25 L 175.42 191.79 L 174.61 192.50 L 172.94 193.45 L 171.91 193.89 L 169.97 194.26 L 168.69 194.35 L 166.40 193.94 L 165.03 193.49 L 163.83 192.87 L 162.09 191.45 L 160.67 189.59 L 159.63 186.94 L 159.40 184.71 L 159.45 183.44 L 159.96 181.49 L 160.36 180.48 L 161.46 178.82 L 162.10 178.05 L 163.82 176.72 L 164.65 176.22 L 167.21 175.43 L 168.17 175.28 z M 648.65 169.58 L 648.65 169.58 L 658.66 165.93 L 661.41 164.10 L 666.52 160.18 L 669.32 157.55 L 671.37 154.87 L 673.26 152.13 L 674.90 148.64 L 677.07 142.52 L 677.96 139.23 L 678.31 128.57 L 673.99 99.41 L 674.25 92.52 L 674.57 91.27 L 675.03 90.90 L 676.79 91.05 L 679.19 92.40 L 679.84 92.88 L 681.78 95.06 L 683.26 98.73 L 684.59 103.01 L 685.85 107.72 L 686.00 109.20 L 685.99 112.01 L 686.23 113.77 L 686.85 115.12 L 687.37 115.53 L 687.70 115.56 L 688.22 115.32 L 689.03 114.50 L 689.72 112.87 L 690.39 112.17 L 690.85 112.14 L 691.58 112.71 L 692.56 113.79 L 693.76 115.71 L 694.80 117.97 L 696.26 123.09 L 697.91 127.82 L 699.44 133.57 L 700.26 134.81 L 700.98 135.39 L 701.63 135.50 L 702.91 135.06 L 703.62 134.47 L 704.52 134.02 L 712.37 159.24 L 712.82 161.87 L 713.38 167.77 L 712.95 170.01 L 710.97 176.77 L 710.09 178.63 L 709.15 180.11 L 705.90 184.38 L 704.79 185.52 L 698.59 189.77 L 696.60 190.86 L 690.82 192.15 L 688.18 192.54 L 661.68 192.86 L 661.68 192.47 L 662.14 190.58 L 661.94 189.40 L 661.75 189.12 L 660.56 188.48 L 659.59 188.27 L 654.00 188.54 L 648.39 188.46 L 645.50 188.56 L 642.28 188.49 L 639.62 187.91 L 637.66 187.24 L 636.78 186.49 L 636.75 185.92 L 637.03 185.43 L 638.65 183.96 L 639.08 183.22 L 639.11 182.56 L 638.66 182.07 L 637.26 181.74 L 635.85 181.86 L 631.37 183.16 L 626.88 183.48 L 618.98 183.45 L 616.57 182.93 L 613.69 181.21 L 612.08 179.37 L 611.73 178.48 L 611.76 177.85 L 612.25 177.36 L 612.95 176.89 L 619.58 174.49 z M 682.92 149.08 L 682.92 149.08 L 677.21 150.79 L 674.30 152.78 L 671.97 155.31 L 670.25 158.38 L 669.30 161.54 L 669.40 167.57 L 671.54 172.69 L 675.25 176.62 L 683.93 182.90 L 687.32 184.74 L 691.62 185.72 L 698.94 184.47 L 702.39 182.38 L 705.16 179.49 L 707.11 175.88 L 708.01 172.14 L 706.95 164.63 L 704.62 160.77 L 701.89 158.18 L 693.32 151.94 L 688.50 149.59 z M 693.98 160.96 L 693.98 160.96 L 695.95 161.45 L 696.98 161.84 L 698.67 162.92 L 699.45 163.55 L 700.82 165.26 L 701.34 166.08 L 702.17 168.63 L 702.34 169.60 L 702.03 172.90 L 701.76 173.89 L 699.85 176.88 L 699.14 177.65 L 696.07 179.41 L 695.07 179.77 L 691.90 179.96 L 690.80 179.85 L 688.47 178.97 L 687.51 178.46 L 685.94 177.12 L 685.21 176.31 L 684.21 174.65 L 683.75 173.62 L 683.34 171.68 L 683.23 170.39 L 683.55 168.30 L 684.05 166.59 L 684.62 165.46 L 686.04 163.68 L 687.82 162.27 L 690.49 161.18 L 692.70 160.93 z M 243.02 74.66 L 243.02 74.66 L 244.67 75.31 L 246.16 75.43 L 246.77 75.17 L 246.95 74.89 L 246.98 74.24 L 246.74 73.37 L 245.57 71.82 L 245.30 70.90 L 245.48 70.47 L 246.35 70.10 L 247.76 69.78 L 250.03 69.66 L 252.50 69.84 L 257.61 71.04 L 262.62 71.90 L 268.36 73.35 L 270.04 73.21 L 270.75 72.89 L 271.15 72.36 L 271.37 71.12 L 271.21 70.14 L 271.25 69.12 L 297.12 74.49 L 299.63 75.38 L 305.07 77.75 L 306.83 79.20 L 312.09 84.55 L 312.98 85.90 L 313.84 87.51 L 315.97 92.32 L 316.42 93.86 L 317.14 101.33 L 317.12 103.61 L 315.46 109.30 L 314.52 111.80 L 301.96 135.13 L 301.61 134.94 L 300.39 133.76 L 298.98 133.22 L 298.65 133.29 L 297.58 133.98 L 296.92 134.72 L 293.99 140.60 L 291.65 144.62 L 290.33 147.21 L 288.62 150.13 L 286.93 152.02 L 285.39 153.41 L 284.31 153.82 L 283.80 153.57 L 283.50 153.08 L 282.99 150.95 L 282.57 150.23 L 282.00 149.89 L 281.36 150.03 L 280.29 151.22 L 279.81 152.38 L 278.77 156.92 L 276.87 161.02 L 273.00 167.92 L 271.39 169.77 L 268.50 171.45 L 266.10 171.96 L 265.14 171.84 L 264.62 171.53 L 264.43 170.87 L 264.36 169.99 L 265.58 162.73 L 275.25 135.28 L 276.92 124.75 L 276.66 121.43 L 275.71 115.06 L 274.74 111.22 L 271.95 105.26 L 269.74 102.19 L 265.38 97.26 L 263.00 94.93 L 253.96 89.50 L 226.18 79.06 L 220.29 75.48 L 219.34 74.59 L 219.23 74.02 L 220.23 72.55 L 222.58 71.10 L 223.30 70.77 L 226.44 70.12 L 230.07 70.62 L 234.47 71.53 L 239.20 72.72 L 240.55 73.29 z M 203.28 133.57 L 203.28 133.57 L 199.05 135.15 L 195.96 137.43 L 188.28 144.84 L 185.21 149.12 L 183.75 154.44 L 184.42 160.42 L 185.84 163.56 L 187.97 166.36 L 190.68 168.58 L 193.73 170.12 L 199.59 171.03 L 205.16 169.74 L 209.43 166.89 L 217.19 159.43 L 219.54 156.46 L 221.26 152.42 L 221.32 144.82 L 219.88 141.14 L 217.45 137.85 L 214.37 135.42 L 210.85 133.86 z M 624.74 64.68 L 624.74 64.68 L 625.46 65.04 L 627.90 67.12 L 629.73 70.29 L 631.74 74.35 L 633.71 78.78 L 634.08 80.18 L 634.52 82.99 L 635.03 84.69 L 635.85 85.93 L 636.10 86.15 L 636.76 86.23 L 637.06 86.08 L 637.91 84.97 L 638.33 83.26 L 638.90 82.46 L 639.33 82.35 L 640.15 82.80 L 641.29 83.71 L 642.77 85.42 L 644.16 87.49 L 646.40 92.32 L 648.77 96.74 L 651.18 102.17 L 652.18 103.27 L 653.04 103.76 L 653.38 103.79 L 654.74 103.16 L 655.43 102.42 L 656.26 101.82 L 667.96 125.51 L 668.81 128.04 L 670.29 133.77 L 670.23 136.05 L 669.24 143.51 L 668.74 145.02 L 667.99 146.73 L 665.51 151.35 L 664.59 152.65 L 659.14 157.82 L 657.33 159.21 L 651.81 161.39 L 649.28 162.18 L 623.16 166.65 L 623.10 166.26 L 623.28 164.58 L 622.96 163.35 L 622.50 162.87 L 621.37 162.50 L 620.37 162.43 L 614.88 163.58 L 609.33 164.38 L 606.52 164.92 L 603.13 165.37 L 600.58 165.21 L 598.55 164.85 L 597.57 164.25 L 597.45 163.68 L 597.65 163.16 L 599.02 161.46 L 599.33 160.66 L 599.25 160.00 L 598.73 159.59 L 597.26 159.49 L 596.02 159.80 L 591.71 161.80 L 590.76 162.08 L 586.19 163.00 L 579.49 164.03 L 577.04 163.89 L 573.94 162.65 L 572.06 161.08 L 571.56 160.24 L 571.50 159.63 L 571.89 159.08 L 572.54 158.49 L 578.70 155.09 L 606.67 145.67 L 615.96 140.51 L 618.39 138.28 L 622.82 133.61 L 625.18 130.58 L 626.78 127.62 L 628.23 124.61 L 629.28 120.97 L 630.47 114.57 L 630.85 111.20 L 629.52 100.56 L 620.69 72.43 L 619.87 65.57 L 619.99 64.29 L 620.39 63.85 L 622.03 63.68 z M 207.45 138.99 L 207.45 138.99 L 210.64 139.94 L 211.54 140.38 L 214.12 142.84 L 214.74 143.67 L 215.88 147.02 L 216.05 148.06 L 215.62 151.22 L 215.30 152.27 L 214.00 154.40 L 213.32 155.24 L 211.70 156.52 L 210.78 157.08 L 208.97 157.74 L 207.84 158.00 L 205.88 158.03 L 204.59 157.89 L 202.46 157.13 L 201.15 156.43 L 200.05 155.60 L 198.54 153.86 L 197.53 151.87 L 196.94 149.05 L 197.11 146.80 L 197.39 145.53 L 198.23 143.70 L 198.80 142.77 L 200.96 140.67 L 202.91 139.64 L 203.81 139.30 L 206.46 138.97 z M 637.34 120.07 L 637.34 120.07 L 631.92 122.64 L 629.41 125.00 L 627.45 127.94 L 626.20 131.34 L 625.78 134.59 L 626.83 140.45 L 629.73 145.18 L 634.06 148.49 L 643.57 153.32 L 647.22 154.61 L 651.52 154.90 L 658.73 152.48 L 661.74 149.93 L 664.04 146.55 L 665.36 142.85 L 665.69 138.93 L 663.48 131.75 L 660.49 128.17 L 657.45 126.09 L 648.01 121.27 L 642.86 119.71 z M 285.43 45.95 L 285.43 45.95 L 289.65 47.54 L 294.11 49.45 L 295.36 50.23 L 297.58 51.98 L 299.11 52.87 L 300.56 53.22 L 301.20 53.06 L 301.43 52.81 L 301.56 52.26 L 301.42 51.12 L 300.54 49.57 L 300.42 48.62 L 300.68 48.23 L 301.58 47.99 L 303.03 47.90 L 305.28 48.12 L 308.13 48.83 L 312.64 50.70 L 317.37 52.31 L 322.82 54.65 L 324.42 54.77 L 325.45 54.45 L 325.68 54.20 L 326.13 52.91 L 326.12 51.92 L 326.33 50.92 L 351.05 60.27 L 353.38 61.53 L 358.39 64.73 L 359.88 66.43 L 364.26 72.56 L 364.91 74.00 L 365.52 75.75 L 366.87 80.82 L 367.09 82.42 L 366.62 89.91 L 366.25 92.16 L 363.71 97.52 L 362.39 99.83 L 346.34 120.91 L 346.03 120.66 L 345.01 119.30 L 343.69 118.55 L 343.35 118.57 L 342.19 119.10 L 341.42 119.73 L 338.18 124.32 L 334.67 128.67 L 332.96 131.01 L 330.81 133.65 L 328.86 135.24 L 327.10 136.38 L 325.98 136.61 L 325.52 136.28 L 325.30 135.76 L 325.13 133.58 L 324.82 132.79 L 324.32 132.36 L 323.66 132.40 L 322.52 133.32 L 321.81 134.40 L 320.01 138.81 L 319.53 139.67 L 317.50 142.56 L 312.62 148.77 L 310.72 150.35 L 307.61 151.55 L 305.16 151.68 L 304.23 151.42 L 303.77 151.02 L 303.68 150.32 L 303.75 149.47 L 306.10 142.48 L 319.96 116.82 L 323.23 106.75 L 323.49 103.42 L 323.55 96.98 L 323.20 93.15 L 322.35 89.86 L 321.36 86.73 L 319.66 83.34 L 316.12 77.78 L 314.14 75.11 L 306.07 68.35 L 280.26 53.68 L 275.01 49.23 L 274.21 48.20 L 274.19 47.61 L 275.41 46.32 L 277.95 45.26 L 278.72 45.04 L 281.64 44.85 z M 652.09 130.25 L 652.09 130.25 L 653.15 130.47 L 655.87 131.78 L 657.51 133.26 L 658.13 133.99 L 659.36 136.38 L 659.69 137.31 L 659.88 140.62 L 659.77 141.64 L 658.35 144.90 L 657.77 145.76 L 655.02 147.97 L 654.08 148.49 L 650.99 149.17 L 649.88 149.23 L 647.43 148.74 L 646.41 148.39 L 644.66 147.30 L 643.80 146.61 L 642.57 145.13 L 641.94 144.17 L 641.23 142.33 L 640.93 141.08 L 640.92 138.77 L 641.12 137.31 L 641.53 136.00 L 642.63 134.03 L 644.20 132.35 L 646.65 130.85 L 648.81 130.25 L 650.07 130.07 z M 515.91 29.44 L 515.91 29.44 L 519.08 30.75 L 519.96 31.39 L 521.28 32.78 L 525.45 38.74 L 527.19 41.69 L 528.33 43.95 L 529.70 48.00 L 530.84 49.92 L 532.07 50.91 L 532.39 51.00 L 533.11 50.87 L 533.55 50.46 L 533.79 48.35 L 534.09 48.47 L 536.07 50.57 L 537.20 52.53 L 538.02 54.79 L 538.42 56.70 L 538.99 58.65 L 539.86 60.38 L 540.55 61.09 L 541.19 61.25 L 541.68 61.01 L 541.88 60.74 L 541.98 59.62 L 541.75 58.53 L 541.68 57.33 L 541.80 54.94 L 542.18 52.09 L 542.83 49.54 L 543.78 47.52 L 544.44 46.80 L 544.83 46.65 L 545.51 46.61 L 545.86 46.82 L 546.39 47.40 L 546.90 48.49 L 547.07 49.15 L 547.49 50.02 L 549.14 51.92 L 557.68 58.86 L 558.99 59.74 L 562.06 62.46 L 563.20 63.09 L 564.61 63.48 L 566.20 63.40 L 567.24 62.79 L 567.47 62.53 L 567.95 61.37 L 568.06 57.72 L 568.38 57.28 L 569.54 56.94 L 572.44 57.66 L 573.87 58.32 L 578.45 60.86 L 582.04 63.54 L 583.33 64.85 L 584.15 66.27 L 584.37 68.64 L 584.86 69.39 L 585.80 69.75 L 586.14 69.73 L 586.64 69.43 L 587.84 66.79 L 588.57 65.79 L 588.97 65.52 L 589.91 65.85 L 591.82 67.69 L 594.24 71.39 L 596.94 74.96 L 599.74 79.50 L 600.71 80.43 L 601.59 80.72 L 601.93 80.71 L 603.17 80.12 L 604.62 78.74 L 619.02 99.33 L 620.20 101.61 L 622.55 107.08 L 622.83 109.25 L 623.01 116.79 L 622.61 118.85 L 621.82 121.79 L 620.73 124.62 L 619.84 126.52 L 615.27 132.53 L 613.77 134.13 L 608.64 137.17 L 606.35 138.31 L 582.59 146.51 L 582.25 144.55 L 581.58 143.33 L 581.32 143.13 L 580.11 142.81 L 579.15 143.01 L 574.16 145.06 L 569.81 146.38 L 565.75 147.92 L 563.13 148.30 L 562.17 148.00 L 562.00 147.55 L 562.01 146.31 L 562.57 143.39 L 562.45 143.08 L 561.97 142.66 L 560.91 142.47 L 560.34 142.74 L 558.71 144.57 L 557.48 145.18 L 555.34 145.53 L 550.91 145.59 L 545.75 144.96 L 544.17 144.63 L 541.29 143.44 L 540.67 142.57 L 540.67 142.02 L 542.78 138.91 L 543.01 137.70 L 542.52 136.38 L 541.89 135.74 L 541.21 135.30 L 539.97 134.84 L 538.59 134.67 L 534.51 135.05 L 532.91 135.01 L 522.00 135.59 L 519.63 136.12 L 518.68 136.60 L 518.13 137.05 L 517.08 137.62 L 516.49 137.77 L 515.90 137.75 L 515.37 137.33 L 515.14 136.96 L 515.03 135.98 L 515.43 133.85 L 516.43 131.35 L 517.79 128.82 L 519.10 126.84 L 519.85 125.90 L 520.62 125.21 L 521.25 124.28 L 521.20 123.64 L 521.00 123.36 L 520.38 123.13 L 519.23 123.36 L 517.62 124.23 L 516.10 125.41 L 514.64 126.74 L 512.65 128.09 L 510.59 129.01 L 507.99 129.53 L 507.44 129.46 L 508.41 127.85 L 508.48 127.52 L 508.32 126.96 L 507.93 126.55 L 507.63 126.40 L 506.16 126.41 L 503.86 127.38 L 500.46 129.80 L 495.78 132.07 L 489.07 134.42 L 486.29 135.04 L 484.75 134.99 L 481.85 134.24 L 479.54 132.77 L 479.11 131.92 L 479.13 131.54 L 479.91 130.50 L 481.64 129.04 L 485.54 126.11 L 511.39 112.05 L 512.75 111.20 L 519.97 105.97 L 522.81 102.53 L 524.99 99.44 L 527.90 94.21 L 529.64 88.85 L 530.35 82.96 L 530.40 79.11 L 530.14 74.78 L 527.34 66.18 L 526.74 64.70 L 514.11 38.21 L 512.25 31.99 L 512.11 30.04 L 512.33 29.71 L 513.12 29.28 z M 249.20 103.92 L 249.20 103.92 L 244.94 104.74 L 241.41 106.52 L 232.64 112.43 L 228.85 116.13 L 226.48 121.11 L 226.11 127.12 L 226.99 130.54 L 228.62 133.66 L 230.81 136.21 L 233.58 138.29 L 239.21 140.20 L 244.67 139.95 L 249.73 137.78 L 258.56 131.81 L 261.48 129.24 L 263.83 125.62 L 265.19 118.12 L 264.39 114.19 L 262.59 110.60 L 259.99 107.66 L 256.49 105.40 z M 337.46 28.50 L 337.46 28.50 L 339.61 28.75 L 342.26 29.93 L 346.99 32.48 L 351.16 35.00 L 352.30 35.93 L 354.24 37.98 L 355.64 39.09 L 357.02 39.63 L 357.36 39.66 L 357.94 39.34 L 358.10 39.05 L 358.19 37.84 L 357.51 36.01 L 357.52 35.05 L 357.82 34.70 L 358.76 34.59 L 360.21 34.69 L 362.40 35.24 L 365.14 36.34 L 369.33 38.81 L 373.80 41.07 L 378.97 44.17 L 380.41 44.49 L 381.29 44.39 L 381.83 44.00 L 382.39 42.89 L 382.51 41.90 L 382.86 40.94 L 406.03 53.63 L 408.18 55.21 L 412.67 59.07 L 413.93 60.97 L 417.40 67.62 L 417.86 69.18 L 418.22 70.97 L 418.84 76.19 L 418.83 77.78 L 417.33 85.17 L 416.65 87.33 L 413.38 92.28 L 411.76 94.39 L 392.93 113.03 L 392.66 112.75 L 391.84 111.26 L 390.63 110.33 L 390.30 110.30 L 389.08 110.65 L 388.21 111.18 L 383.69 115.96 L 380.30 119.09 L 378.28 121.18 L 375.80 123.48 L 373.63 124.78 L 371.73 125.67 L 370.58 125.75 L 370.17 125.36 L 370.03 124.80 L 370.17 122.63 L 369.97 121.80 L 369.54 121.30 L 368.88 121.25 L 367.66 121.98 L 366.71 123.06 L 364.39 127.08 L 363.75 127.89 L 360.54 131.25 L 355.65 135.93 L 353.58 137.22 L 350.32 137.99 L 347.86 137.77 L 346.99 137.38 L 346.58 136.91 L 346.60 136.22 L 346.78 135.38 L 350.08 128.79 L 367.39 105.30 L 372.03 95.75 L 372.74 92.53 L 373.71 86.08 L 373.88 82.24 L 373.51 78.96 L 372.96 75.70 L 371.74 72.11 L 369.01 66.13 L 367.37 63.14 L 360.37 55.37 L 336.86 37.27 L 332.27 32.12 L 331.63 31.00 L 331.69 30.40 L 333.06 29.29 L 335.74 28.60 z M 587.96 98.74 L 587.96 98.74 L 583.95 101.44 L 582.74 102.39 L 580.64 105.25 L 579.43 108.00 L 578.78 110.94 L 578.82 114.68 L 580.81 120.40 L 584.49 124.63 L 588.92 127.07 L 599.36 130.51 L 603.38 131.22 L 607.41 130.82 L 614.02 127.35 L 616.35 124.83 L 618.38 120.82 L 619.19 116.18 L 618.74 112.63 L 615.46 106.01 L 612.52 103.37 L 608.77 101.53 L 598.22 98.14 L 593.43 97.54 z M 396.09 20.14 L 396.09 20.14 L 398.93 20.76 L 402.28 22.86 L 405.88 25.55 L 409.67 28.64 L 410.67 29.74 L 412.30 32.01 L 413.54 33.30 L 414.82 34.03 L 415.15 34.10 L 415.77 33.87 L 415.97 33.60 L 416.22 32.41 L 415.81 30.51 L 415.96 29.57 L 416.30 29.26 L 417.24 29.29 L 418.68 29.59 L 420.77 30.43 L 422.94 31.65 L 427.12 34.93 L 431.23 37.78 L 435.89 41.57 L 437.32 42.10 L 438.17 42.12 L 438.76 41.82 L 439.49 40.78 L 439.76 39.82 L 440.24 38.92 L 461.42 54.72 L 463.31 56.57 L 467.24 61.03 L 468.21 63.08 L 470.60 69.76 L 470.96 71.73 L 471.07 73.57 L 470.96 78.85 L 470.72 80.42 L 468.21 87.51 L 467.24 89.57 L 463.32 94.01 L 461.42 95.88 L 440.16 111.71 L 439.93 111.39 L 439.33 109.81 L 438.33 108.76 L 438.01 108.65 L 436.68 108.83 L 435.77 109.21 L 430.60 113.34 L 426.82 115.97 L 424.53 117.74 L 421.91 119.56 L 419.40 120.67 L 417.42 121.29 L 416.27 121.20 L 415.92 120.74 L 415.84 120.18 L 416.29 118.05 L 416.21 117.19 L 415.84 116.64 L 415.20 116.50 L 413.90 117.05 L 412.76 118.05 L 409.95 121.64 L 409.22 122.36 L 405.55 125.25 L 400.08 129.19 L 397.82 130.20 L 394.49 130.49 L 392.10 129.95 L 391.29 129.44 L 390.95 128.92 L 391.07 128.22 L 391.51 127.11 L 395.54 121.36 L 415.91 100.56 L 421.82 91.80 L 423.03 88.60 L 424.88 82.34 L 425.59 78.57 L 425.67 75.27 L 425.58 71.93 L 424.88 68.25 L 423.03 61.99 L 421.80 58.74 L 415.96 50.08 L 395.18 28.87 L 391.35 23.14 L 390.87 21.94 L 391.03 21.36 L 391.24 21.15 L 392.53 20.47 L 395.28 20.14 z M 456.40 20.12 L 456.40 20.12 L 457.18 20.25 L 460.15 21.47 L 462.87 23.91 L 466.02 27.13 L 469.26 30.76 L 470.07 31.97 L 471.35 34.50 L 472.36 35.97 L 473.52 36.88 L 473.83 37.01 L 474.48 36.88 L 474.72 36.64 L 475.15 35.51 L 475.05 33.58 L 475.33 32.66 L 475.72 32.42 L 476.65 32.59 L 478.01 33.10 L 479.95 34.27 L 481.90 35.80 L 485.52 39.71 L 489.12 43.16 L 493.24 47.70 L 494.48 48.38 L 495.57 48.52 L 495.88 48.39 L 496.82 47.43 L 497.25 46.52 L 497.85 45.69 L 516.29 64.61 L 517.88 66.75 L 521.06 71.76 L 521.70 73.93 L 522.99 80.86 L 523.05 82.93 L 522.88 84.75 L 521.95 89.94 L 521.46 91.47 L 517.88 98.06 L 516.60 99.94 L 512.02 103.73 L 509.86 105.26 L 486.39 117.58 L 486.21 117.23 L 485.76 115.35 L 485.05 114.38 L 484.76 114.23 L 483.41 114.18 L 482.43 114.43 L 476.70 117.69 L 472.54 119.69 L 470.01 121.09 L 466.96 122.56 L 464.49 123.18 L 462.43 123.48 L 461.31 123.22 L 461.03 122.72 L 461.06 122.15 L 461.82 120.11 L 461.87 119.25 L 461.60 118.65 L 460.98 118.41 L 459.54 118.76 L 458.39 119.50 L 454.98 122.68 L 454.19 123.23 L 450.08 125.54 L 444.05 128.59 L 441.67 129.22 L 438.35 129.00 L 436.07 128.07 L 435.34 127.45 L 435.08 126.87 L 435.30 126.22 L 436.04 125.07 L 440.83 120.11 L 464.23 102.73 L 471.46 94.95 L 473.09 92.08 L 475.86 86.27 L 477.16 82.65 L 477.77 79.35 L 478.21 76.04 L 478.09 72.26 L 477.24 65.73 L 476.58 62.48 L 472.03 52.78 L 454.92 28.74 L 452.04 22.46 L 451.75 21.21 L 451.99 20.66 L 453.49 20.00 z M 251.43 109.77 L 251.43 109.77 L 252.39 109.94 L 255.38 111.37 L 256.21 111.96 L 258.39 114.79 L 258.86 115.70 L 259.46 119.18 L 259.46 120.25 L 258.55 123.29 L 258.07 124.29 L 256.44 126.19 L 255.64 126.92 L 253.83 127.94 L 252.83 128.35 L 250.93 128.70 L 249.79 128.78 L 247.85 128.51 L 246.59 128.17 L 244.60 127.08 L 243.40 126.19 L 242.49 125.25 L 241.26 123.27 L 240.54 121.09 L 240.42 118.23 L 240.94 116.03 L 241.41 114.83 L 242.53 113.16 L 243.25 112.33 L 244.85 111.11 L 245.70 110.59 L 247.79 109.88 L 248.73 109.69 z M 604.98 106.36 L 604.98 106.36 L 606.93 106.86 L 607.86 107.22 L 609.71 108.42 L 610.44 109.05 L 612.03 111.22 L 612.49 112.09 L 613.21 115.32 L 613.26 116.34 L 612.36 119.79 L 611.92 120.73 L 609.56 123.35 L 608.72 124.01 L 605.76 125.16 L 604.68 125.39 L 602.18 125.28 L 601.12 125.10 L 599.21 124.30 L 598.26 123.76 L 596.82 122.50 L 596.05 121.64 L 595.05 119.94 L 594.55 118.75 L 594.21 116.60 L 594.17 114.87 L 594.35 113.64 L 595.14 111.50 L 596.44 109.58 L 598.62 107.73 L 600.64 106.82 L 601.86 106.45 L 603.90 106.30 z M 205.52 118.48 L 205.52 118.48 L 205.54 118.48 L 205.52 118.48 z M 294.68 82.01 L 294.68 82.01 L 291.00 83.18 L 281.49 87.61 L 277.09 90.72 L 273.98 95.26 L 272.67 101.14 L 272.99 104.57 L 274.13 107.99 L 275.95 110.91 L 278.29 113.32 L 283.60 116.13 L 289.08 116.72 L 294.30 115.38 L 303.92 110.90 L 307.27 108.76 L 310.21 105.48 L 312.65 98.55 L 312.49 94.30 L 311.29 90.52 L 309.18 87.22 L 306.29 84.56 L 299.20 81.85 z M 300.38 87.96 L 300.38 87.96 L 301.32 88.28 L 304.04 90.17 L 304.78 90.88 L 306.48 94.01 L 306.81 94.99 L 306.85 98.53 L 306.69 99.58 L 305.31 102.43 L 304.69 103.34 L 302.78 104.97 L 301.87 105.56 L 299.92 106.28 L 298.88 106.53 L 296.94 106.59 L 295.80 106.49 L 293.92 105.91 L 292.74 105.39 L 290.92 103.97 L 289.88 102.89 L 289.09 101.76 L 288.24 99.74 L 287.87 97.49 L 288.20 94.59 L 289.06 92.52 L 289.70 91.40 L 291.07 89.92 L 291.91 89.21 L 293.68 88.25 L 294.61 87.88 L 296.79 87.50 L 297.74 87.45 z M 347.46 67.31 L 347.46 67.31 L 343.64 67.90 L 333.56 70.79 L 328.81 73.11 L 324.95 77.16 L 322.74 82.76 L 322.50 86.20 L 323.10 89.77 L 324.43 92.92 L 326.39 95.69 L 331.08 99.21 L 336.65 100.73 L 341.91 100.20 L 352.17 97.25 L 355.64 95.74 L 359.22 92.78 L 362.70 86.21 L 363.13 82.28 L 362.55 78.41 L 360.97 74.73 L 358.46 71.59 L 351.95 67.87 z M 490.63 66.86 L 490.63 66.86 L 485.50 68.89 L 481.12 73.03 L 479.47 76.05 L 478.51 79.46 L 478.36 82.89 L 478.98 86.29 L 481.74 91.47 L 486.01 95.12 L 491.07 96.92 L 501.69 98.61 L 505.48 98.71 L 509.75 97.65 L 515.90 93.06 L 517.91 89.76 L 519.06 85.92 L 519.16 81.82 L 518.15 77.87 L 513.83 71.82 L 510.08 69.48 L 506.36 68.40 L 496.00 66.75 z M 505.77 74.10 L 505.77 74.10 L 506.80 74.39 L 508.74 75.18 L 509.63 75.81 L 511.48 77.50 L 512.09 78.44 L 513.38 81.34 L 513.51 82.39 L 513.35 85.91 L 512.98 87.06 L 511.04 90.00 L 510.31 90.77 L 507.57 92.36 L 506.53 92.76 L 504.03 93.05 L 502.94 93.03 L 500.93 92.54 L 499.90 92.15 L 498.25 91.12 L 497.37 90.41 L 496.12 88.87 L 495.43 87.78 L 494.71 85.60 L 494.45 84.13 L 494.43 82.76 L 494.88 80.54 L 495.81 78.49 L 496.64 77.39 L 497.72 76.36 L 499.58 75.01 L 500.78 74.53 L 502.69 74.02 L 503.82 73.97 z M 349.47 73.14 L 349.47 73.14 L 352.02 74.01 L 352.89 74.45 L 355.33 76.70 L 355.96 77.51 L 357.20 80.85 L 357.39 81.87 L 356.95 85.36 L 356.65 86.38 L 354.88 89.02 L 354.13 89.83 L 352.01 91.18 L 351.03 91.64 L 349.00 92.08 L 347.93 92.19 L 346.03 91.97 L 344.90 91.72 L 343.12 90.89 L 342.02 90.21 L 340.40 88.54 L 339.54 87.36 L 338.92 86.12 L 338.35 83.96 L 338.29 81.69 L 339.04 78.83 L 340.17 76.93 L 340.96 75.93 L 342.52 74.66 L 343.46 74.07 L 345.33 73.36 L 346.31 73.12 L 348.51 73.06 z M 402.00 90.41 L 402.00 90.41 L 405.65 89.41 L 409.60 86.97 L 413.97 80.95 L 414.94 77.12 L 414.91 73.19 L 413.84 69.33 L 411.85 65.95 L 405.94 61.32 L 401.52 60.10 L 397.75 60.13 L 387.26 61.61 L 382.15 63.28 L 377.90 66.68 L 374.87 71.96 L 374.16 75.34 L 374.23 78.86 L 375.13 82.26 L 376.68 85.26 L 380.91 89.48 L 386.00 91.67 L 391.35 91.90 z M 441.63 60.01 L 441.63 60.01 L 436.33 60.98 L 431.65 63.78 L 428.04 68.47 L 426.82 71.77 L 426.41 75.28 L 426.82 78.79 L 427.95 81.97 L 431.54 86.71 L 436.27 89.58 L 441.70 90.58 L 452.18 90.58 L 456.13 90.06 L 460.11 88.38 L 465.48 82.87 L 466.97 79.21 L 467.47 75.33 L 466.96 71.36 L 465.33 67.51 L 460.19 62.26 L 456.12 60.52 L 452.21 60.01 z M 453.48 65.79 L 453.48 65.79 L 455.60 66.37 L 456.50 66.74 L 458.68 68.30 L 459.39 68.99 L 461.06 71.85 L 461.42 72.81 L 461.63 76.36 L 461.52 77.39 L 460.09 80.61 L 459.49 81.50 L 457.03 83.50 L 456.07 84.06 L 453.66 84.73 L 452.60 84.88 L 450.52 84.70 L 449.46 84.49 L 447.69 83.74 L 446.70 83.17 L 445.23 81.84 L 444.39 80.86 L 443.33 78.81 L 442.84 77.38 L 442.62 76.07 L 442.70 73.78 L 443.31 71.64 L 444.84 69.16 L 446.49 67.64 L 447.53 66.91 L 449.41 66.15 L 450.47 65.86 L 452.48 65.74 z M 401.75 65.94 L 401.75 65.94 L 402.68 66.16 L 405.07 67.36 L 405.88 67.93 L 407.99 70.52 L 408.50 71.39 L 409.27 74.86 L 409.32 75.90 L 408.39 79.30 L 407.94 80.28 L 405.83 82.64 L 404.97 83.34 L 402.68 84.38 L 401.65 84.70 L 399.58 84.85 L 398.51 84.81 L 396.64 84.33 L 395.57 83.92 L 393.91 82.84 L 392.93 82.01 L 391.58 80.18 L 390.88 78.87 L 390.42 77.51 L 390.17 75.32 L 390.42 73.08 L 391.54 70.39 L 392.93 68.63 L 393.86 67.74 L 395.60 66.69 L 396.58 66.24 L 398.56 65.81 L 399.56 65.71 z M 189.62 629.42 L 189.62 629.42 L 189.61 629.42 L 189.61 629.42 z M 152.26 630.39 L 152.26 630.39 L 152.26 630.39 L 152.26 630.39 z M 684.92 281.62 L 684.92 281.62 L 684.94 281.65 L 684.93 281.64 z M 44.53 302.66 L 44.53 302.66 L 44.54 302.66 L 44.54 302.66 z M 73.97 278.08 L 73.97 278.08 L 73.99 278.08 L 73.98 278.08 z M 747.65 226.58 L 747.65 226.58 L 747.67 226.56 L 747.64 226.59 z M 692.10 219.67 L 692.10 219.67 L 692.11 219.67 L 692.10 219.67 z M 393.73 91.58 L 393.73 91.58 L 393.72 91.58 L 393.73 91.58 z"
    style="fill:#000000; fill-opacity:0.00; fill-rule:evenodd; stroke:#ff0000; stroke-opacity:1.00; stroke-width:1.30;"/>
  <path d=" M 879.55 372.01 L 879.55 372.01 L 877.93 371.25 M 879.90 372.94 L 879.90 372.94 L 877.39 371.78 M 876.86 372.30 L 876.86 372.30 L 879.96 373.74 M 879.90 374.48 L 879.90 374.48 L 876.33 372.82 M 875.80 373.34 L 875.80 373.34 L 879.76 375.19 M 879.57 375.87 L 879.57 375.87 L 875.27 373.86 M 874.74 374.39 L 874.74 374.39 L 879.24 376.49 M 878.90 377.10 L 878.90 377.10 L 874.20 374.91 M 873.75 375.47 L 873.75 375.47 L 878.49 377.68 M 877.98 378.21 L 877.98 378.21 L 873.49 376.12 M 873.21 376.76 L 873.21 376.76 L 877.27 378.65 M 876.50 379.06 L 876.50 379.06 L 872.89 377.38 M 872.57 378.00 L 872.57 378.00 L 875.23 379.24 M 873.83 379.36 L 873.83 379.36 L 872.24 378.62 M 871.90 379.23 L 871.90 379.23 L 872.04 379.29 M 868.57 381.98 L 868.57 381.98 L 867.50 381.48 M 868.65 382.78 L 868.65 382.78 L 866.97 382.00 M 866.44 382.52 L 866.44 382.52 L 868.93 383.68 M 869.07 384.52 L 869.07 384.52 L 865.91 383.04 M 865.37 383.57 L 865.37 383.57 L 869.32 385.40 M 869.59 386.31 L 869.59 386.31 L 864.84 384.09 M 864.31 384.61 L 864.31 384.61 L 869.66 387.11 M 869.49 387.79 L 869.49 387.79 L 863.78 385.13 M 863.24 385.65 L 863.24 385.65 L 869.23 388.45 M 868.98 389.10 L 868.98 389.10 L 862.71 386.18 M 862.18 386.70 L 862.18 386.70 L 868.73 389.75 M 868.48 390.40 L 868.48 390.40 L 861.65 387.22 M 861.11 387.74 L 861.11 387.74 L 868.22 391.06 M 867.85 391.66 L 867.85 391.66 L 860.58 388.26 M 860.05 388.79 L 860.05 388.79 L 867.48 392.25 M 867.10 392.85 L 867.10 392.85 L 859.52 389.31 M 858.98 389.83 L 858.98 389.83 L 866.73 393.44 M 866.35 394.04 L 866.35 394.04 L 858.45 390.35 M 857.92 390.87 L 857.92 390.87 L 866.02 394.65 M 865.71 395.28 L 865.71 395.28 L 857.39 391.40 M 856.85 391.92 L 856.85 391.92 L 865.41 395.91 M 865.10 396.53 L 865.10 396.53 L 856.32 392.44 M 855.79 392.96 L 855.79 392.96 L 864.79 397.16 M 864.51 397.80 L 864.51 397.80 L 855.26 393.48 M 854.72 394.01 L 854.72 394.01 L 864.28 398.46 M 864.13 399.16 L 864.13 399.16 L 854.19 394.53 M 853.66 395.05 L 853.66 395.05 L 864.04 399.89 M 864.05 400.66 L 864.05 400.66 L 853.13 395.57 M 852.59 396.09 L 852.59 396.09 L 864.31 401.56 M 865.62 402.94 L 865.62 402.94 L 852.80 396.96 M 853.28 397.96 L 853.28 397.96 L 868.38 405.00 M 869.94 406.49 L 869.94 406.49 L 853.09 398.64 M 852.54 399.15 L 852.54 399.15 L 870.65 407.60 M 871.19 408.62 L 871.19 408.62 L 851.98 399.66 M 851.42 400.17 L 851.42 400.17 L 871.48 409.53"
    style="fill:#000000; fill-opacity:0.00; fill-rule:evenodd; stroke:#b3b3da; stroke-opacity:0.80; stroke-width:1.30;"/>
</svg>
